<?xml version="1.0" encoding="UTF-8"?>
<svg id="Layer_1" data-name="Layer 1" xmlns="http://www.w3.org/2000/svg" viewBox="0 0 1936 1253">
  <defs>
    <style>
      .cls-1 {
        fill: #caa900;
      }

      .cls-2 {
        fill: #fdfcef;
      }

      .cls-3 {
        fill: #b29000;
      }

      .cls-4 {
        fill: #4a6b3e;
      }
    </style>
  </defs>
  <ellipse class="cls-1" cx="955" cy="987.38" rx="624.5" ry="106.88"/>
  <path class="cls-4" d="M878.5,1064.81s-14.99-61.68-4.4-56.78c10.58,4.9,10.76,51.89,10.76,51.89,0,0,13.92-70.88,24.63-65.09,6.55,3.54-19.51,71.99-19.51,71.99,0,0,26.37-31.73,25.77-21.61-.28,4.77-21.95,27.28-21.95,27.28h-17.63s-16.04-26.23-16.39-33.35c-.35-7.12,1.77-8.67,18.72,25.66Z"/>
  <path class="cls-4" d="M1152.5,1027.81s-14.99-61.68-4.4-56.78c10.58,4.9,10.76,51.89,10.76,51.89,0,0,13.92-70.88,24.63-65.09,6.55,3.54-19.51,71.99-19.51,71.99,0,0,26.37-31.73,25.77-21.61-.28,4.77-21.95,27.28-21.95,27.28h-17.63s-16.04-26.23-16.39-33.35c-.35-7.12,1.77-8.67,18.72,25.66Z"/>
  <path class="cls-4" d="M1246.44,1066.36s-8.07-33.21-2.37-30.57c5.7,2.64,5.79,27.94,5.79,27.94,0,0,7.5-38.17,13.26-35.05,3.53,1.91-10.51,38.77-10.51,38.77,0,0,14.2-17.09,13.88-11.63-.15,2.57-11.82,14.69-11.82,14.69h-9.5s-8.64-14.13-8.82-17.96c-.19-3.83.95-4.67,10.08,13.82Z"/>
  <path class="cls-4" d="M1035.57,1100.04s-18.44-75.86-5.42-69.83c13.02,6.03,13.23,63.83,13.23,63.83,0,0,17.12-87.18,30.29-80.06,8.06,4.36-24,88.55-24,88.55,0,0,32.43-39.03,31.7-26.58-.34,5.86-27,33.55-27,33.55h-21.69s-19.73-32.27-20.15-41.03c-.42-8.76,2.17-10.67,23.03,31.57Z"/>
  <path class="cls-4" d="M1358.91,1023.7s-13.26-54.56-3.9-50.22c9.36,4.34,9.52,45.9,9.52,45.9,0,0,12.32-62.7,21.79-57.58,5.79,3.13-17.26,63.69-17.26,63.69,0,0,23.33-28.07,22.8-19.11-.25,4.22-19.42,24.13-19.42,24.13h-15.6s-14.19-23.21-14.5-29.51c-.31-6.3,1.56-7.67,16.56,22.7Z"/>
  <rect class="cls-2" x="-1.5" y=".5" width="1939" height="1252"/>
  <path class="cls-1" d="M1952.5,1031.13v231.34H.5v-228.3s16.16-1.22,49.31-3.09c31.11-1.76,77.26-4.07,138.98-6.46,59.69-2.3,134.02-4.69,223.58-6.69,32.72-.73,67.46-1.42,104.28-2.04,69.73-1.16,146.87-2.07,231.59-2.57,34.47-.2,70.19-.34,107.16-.41,14.44-.02,29.08-.03,43.92-.03,61.06,0,120.36.18,177.63.5,36.27.21,71.72.47,106.31.77,80.85.72,156.9,1.72,227.41,2.86,39.86.64,77.92,1.33,114.07,2.05,91.98,1.83,171.5,3.84,236.15,5.68,52.16,1.49,94.67,2.87,126.26,3.96,42.55,1.48,65.35,2.43,65.35,2.43Z"/>
  <path class="cls-3" d="M1952.5,1037.79s-307.55,11.38-427.65,12.94c0,0-347.66-3.28-680.97-.2,0,0,393.52,11.6,510.44,16.49l-131.2,2.32,729.38,56.19v-53.62l-683.58-18.67,683.58,2.59v-18.03Z"/>
  <path class="cls-3" d="M.57,1084.52s940.44,6.58,1426.88,9.32l-1230.19,7.43,546.06,15.17L.5,1124.89l.07-40.37Z"/>
  <path class="cls-4" d="M70.57,1085.22s-17.87-101.39-5.1-95.47c12.77,5.91,12.77,89.58,12.77,89.58,0,0,17.75-87.04,29.71-78.52,11.96,8.52-23.54,86.85-23.54,86.85,0,0,54.16-49.6,58.06-38.01,3.9,11.59-53.44,44.85-53.44,44.85h-21.27s-22.18-64.91-22.6-73.5c-.42-8.59,13.78,14.38,25.42,64.22Z"/>
  <g>
    <path class="cls-4" d="M496.69,1037.99c-2.54-10.59-9.49-17.28-10.9-28.88-2.17-17.84.43-32.52,14.58-44.21,3.36-2.78,18.51-10.43,18.48-12.94-.02-1.59-13.9-9.63-6.86-17.09,4.6-4.88,23.86-5.96,30.95-6.06-16.66-14.23,1.14-19.37,1.91-26.88.52-5.07-7.19-15.16-7.71-33.49-.65-23.25,8.32-22.85,7.21-33.49-.33-3.11.3-24.61.01-26.41-.54-3.34-7.97-2.42-8.56-6.76-2.18-16.05,2.17-15.01,11.79-15.42,31.92-1.37,59.02-1.44,93.21-.2,5.88-11.28-7.31-46.15,11.59-46.15,8.61-.12,8.38,6.38,8.93,12.14,4.02,42.3.88,85.46,5.65,127.56.2,52.82,2.21,105.63,5.47,158.26h49.95c.47,11.75-.25,26.67-10.08,34.43l-253.64.25c-7.54-1.34,1.74-34.68,5.63-34.68h32.38ZM663.18,1049.08c-.04-4.11-2.25-215.88-7.4-301.99-3.65-2.04-4.08-1.98-7.38.44l-3.72,301.57,18.5-.02ZM543.86,801.17h97.13c-.02-2.29-.4-6.45-1.65-8.16-3.36-4.6-83.17-2.01-96.7-1.54-.51,2.45-1.32,8.99,1.22,9.71ZM602.14,806.73h-44.4c.84,9.28,2.5,21.29,3.28,30.28.29,3.32,1.75,7.56,3.66,9.95,3.02,3.77,5.39,31.2.44,40.43-2.3,4.29-8.86,12.81-1.89,21.09h36.14c.2,0,2.78-2.58,2.78-2.78v-98.98ZM616.94,806.73h-9.25v99.91h9.25v-99.91ZM640.99,806.73h-18.5v101.75c3.96.65,18.5.4,18.5-4.62v-97.13ZM551.85,838.23c6.65,0,4.06-29.98-.4-29.98s-6.26,29.98.4,29.98ZM552.18,887.39c15.71,0,14.4-41.8-.3-41.8s-15.41,41.8.3,41.8ZM552.97,892.87c-3.61,0-3.96,17.52.28,17.52s3.34-17.52-.28-17.52ZM543.74,921.43h95.4v-9.26c-32.73-.18-65.43-.34-98.06,1.87-.94,3.9-1.43,6.77,2.66,7.39ZM552.94,929.83c-3.44-2.85-7.6,8.22-.96,7.93s.96-7.93.96-7.93ZM639.14,928.83c-2.36,1.01-5.48-1.85-6.48-1.85h-71.23s23.16,2.06,30.6,5.73c10.1,7.01-6.43,14.75-4.6,20.87,29.78,15.25,41.09,41.47,26.19,72.76-1.27,2.66-11.37,11.64-1.31,11.64h26.83v-109.16ZM589.19,938.1c-2.5-3.74-25.38-5.68-26.71-5.38-3.39.77-.74,7.83-7.88,8.63-9.91,1.11-11.54-7.7-14.39-8.66-4.49-1.51-27.69,2.81-23.16,9.07,1.77,2.44,37.87,4,43.54,3.8,4.22-.15,20.82-1.48,23.6-2.3,1.72-.51,7.5-1.42,5-5.15ZM523.96,957.03c-8.35,2.57-33.06,21.1-32.84,30.15.09,3.68,2.94,4.29,5.58,5.47,5.79,2.58,27.19,5.92,34.24,6.45,11.56.89,78.79,1.17,82.15-10.43,2.74-9.48-22.14-28.78-32.67-31.64-10.53-2.86-48.11-2.57-56.46,0ZM496.67,1019.48c-.78-6.88-1.35-17.85-7.36-22.2,1.64,6.91,1,17.88,7.36,22.2ZM507.34,1000.6l-12.5-3.3c2.77,11.08,4.7,19.5,12.5,3.3ZM607.68,997.3c-11.04,2.19-12.88,5.14-7.36,12.93,3.82,3.62,7.29-11.11,7.36-12.93ZM605.86,1021.34c8.12-4.4,9-15.76,9.21-24.05-7.38,4.35-9.15,16.09-9.21,24.05ZM574.38,1026.89c13.34-.71,32.86,1.06,21.93-17.31-11.11-18.67-23.45,3.59-21.93,17.31ZM531.83,1026.88c1.72-10.69-12.78-33.01-24.17-21.38-2.33,2.38-6.73,13.16-4.67,15.94,1.67,2.25,27.47,6.78,28.84,5.44ZM528.15,1002.84l6.47,12.9c8.43-10.3,8.37-14.23-6.47-12.9ZM575.46,1004.05l-10.32.65s.17,9.36,3.73,11.08c3.56,1.72,6.79-7.39,6.59-11.73ZM537.39,1028.74h28.68c6.26,0-2.29-18.16-6.51-21.22-13.49-9.77-23.26,9.8-22.16,21.22ZM607.68,1025.04c-36.75,10.99-74.14,8.9-110.99.01,13.05,27.31,66.97,29.96,90.07,18.83,8.25-3.97,19.1-15.15,20.92-18.84ZM465.23,1049.09h48.1c-.22-2.56-6.82-4.65-8.78-5.1-10.22-2.35-27.29-3.08-37.03.92-2.23.92-4.62,2.32-2.29,4.18ZM639.14,1043.54h-39.78c-.75,0-6.46,3.6-6.48,5.55h46.25v-5.55ZM713.14,1043.54h-40.7v5.55h36.08c1.97,0,6.2-2.84,4.62-5.55ZM709.45,1054.64h-245.14c-4.25,0-1.54,11.1-.92,11.1h246.06v-11.1ZM655.78,747.09,655.78,747.09"/>
    <g>
      <path class="cls-4" d="M330.17,1096.41c0,.61-.38.76-.48,1.13-.26-.12-.89-.44-1.16-.56,0,0,0-.17,0-.17-.04-3.13.18-6.38-.43-9.46.13.06,0,.2.47-.05-.94,2.03.09,4.44-.46,6.83-.32,1.99-1.75,3.82-3.53,4.73-21.41,8.11-44.42,10.85-67.18,11.33-28.09-.25-58.17-1.69-82.92-16.32-.74-.41-3.32-2.6-4.24-1.67-1.46.57-2.84-1.61-1.26-2.67,0,0-.3,1.04-.3,1.04l-.81-2.43-.02-.07v-.15s-.22-9.66-.22-9.66v-.25s.12-.26.12-.26c1.44-2.9-.35-6.72.81-11.13,0,0,.97-3.68.97-3.68l1.62,3.64s.2.44.2.44c0,.09.25.31-.08-.02-.06-.03-.43-.35-1.02-.21-.65.16-.76.55-.84.64,0,0,.05-.39.05-.39.09-.69-.03-.61.64-1.04.22-.14.43-.42.19-.09-.6,1.07.46,2.01.96,2.01-.18.02-.65.11-1.04.22l-1.91.5c-.07-1.71.34-3.84.76-4.82,0,0-.61-1.67-.61-1.67,1.2.12,3.24.37,4.41.49,23.1,12.68,51.8,10.47,77.49,11.85,19.84.19,39.63-1.5,59.16-4.87,6.4-1.15,12.94-2.72,17.94-6.71,0,0,.3-.24.3-.24,0,0,.3,0,.3,0l1.08-.02s.26,0,.26,0c0,0,.18.09.18.09,0,0,.77.38.77.38l.54.27s0,.51,0,.51c-.1,7.16.08,14.33.14,21.45,0,0-.59,1.24-.59,1.24.2-.81-.35,9.99-.25,9.83h0ZM329.69,1096.44c0-.09,0-10.01,0-10.1,0,0,.03-.08.03-.08,0,0,.56-1.26.56-1.26-.41-6.15-.64-14.24-1.22-21.02,0,0,.53.77.53.77,0,0-.8-.33-.8-.33,1.14.14-.48.11-.64.17-7.61,7.73-25.41,10.04-37.67,12.27-26.57,3.96-53.64,3.15-80.24.18-12.2-1.08-30-4.77-38.13-11.25,0,0-1.7-.28-1.7-.28,0,0,1.78-1.41,1.78-1.41-.15.95-.41,1.31-.55,1.71-.15.38-.24.67-.27.95l-1.83-1.57c1.01-.29,3.54-.63,3.48,1.53-.08.82-.82,1.34-1.34,1.66,0,0,.63-1.04.63-1.04-.15.89-.22,1.79-1.44,2.18-1.26.25-1.79-.85-2.02-1.33,0,0-.26-.67-.26-.67l2.59-.04c-1.13,3.43.5,7.65-1.43,11.28,0,0,.12-.51.12-.51l-.21,9.66c-.21-.95.7,2.17.66,1.99.24.79.37.63-.3,1.04-.05.03.03.02,0-.17-.21-.4-.26-.21-.57-.14,1.13-.71,2.71-.38,3.56.28,11.51,8.16,25.43,12.07,39.32,13.77,36.99,2.68,75.68,2.6,111.7-6.86,4.96-2.07,2.3-7.08,3.94-11,.57-.37.52-.01.75.08.83,3.19.31,6.64.34,9.92,0,0-.14-.24-.14-.24l.75.39s-.34.13-.34.13c.25-.4.4-.44.36-.66h0Z"/>
      <path class="cls-4" d="M169.55,1090.31c-.14.03-1.32-.23-1.75-.59.76-.67.93-1.44.28-2.17,1.96-.31,2.9,1.27,1.47,2.76h0ZM169.47,1090.17c-.53-.05-.75-.73-.88-1.1-.14-.26.1-.35-.05-.77l.66-.38c-.64.59.68,2.29.08,1.04-.08.19-.19.73.19,1.2h0Z"/>
      <path class="cls-4" d="M342.13,784.58c-.36.93-.43.36.08.69,5.8,2.49,11.34,5.65,16.11,9.81,16.35,14.13,26,36.14,25.98,57.69,0,0,0,.19,0,.19,0,.08,0-.05-.03-.14,0,0-.03-.07-.03-.07-.04,0,.13.06-.34-.54-.19-.35-1.31-.54-1.7-.14-.46.4-.38.42-.51.67.17-1.4.4-4.2.56-5.85,0,0,1.91,1.49,1.91,1.49,1.78,1.72.8,2.46,1.03,4.08,0,0,.02,3.07.02,3.07,0,0,.02,3.07.02,3.07,0,.61,0,.89.04,1.45-.04.49.27,1.63-1.07,2.7,0,0-.65.51-.65.51,0,0-.82-.43-.82-.43-.81-.4-1-1.37-1.07-2.16,0,0-.05-1.15-.05-1.15,0,0,.02-1.1.02-1.1l.03-.56.03-.3s.02-.17.02-.17c0,0,.03-.19.03-.19l.03-.1.04-.13c.12,0-.03-.85,1.59-.98,1.51.52.93.87,1.37,1.01-.1,6.42-2.25,13.32-3.57,19.2-.05-.32-.82-.55-.6-.46,0,0,1.64.72,1.64.72,0,0,.1.35.1.35.49.98.41,3.05-.07,4.05-4.74,15.14-12.14,29.86-21.41,42.6,0,0-1.54.85-1.54.85,0,0,1.02-1.56,1.02-1.56-.06,2.16-1.74,4.38-3.37,5.26l.45-.38-11.97,14.39c-5.34,7.4-13.62,12.47-12.23,22.45.19,2.9.57,6.24,1.42,8.49,1.33,2.45,4.5,6.72,5.93,8.73-.93-.33-.14-.07.02-.15.97-.05,2.09-.16,3.01-.41.54-.05,1.43-.62,1-.24l3.23.06s-.01-.08-.35-.26c-.35-.22-1.06-.14-1.22,0l.18-.08c1.79-.36,3.31-1.4,4.91.55.8,1.64.22,2.36-.41,3.31,0,0,.42-1.38.42-1.38.04.48.1,1.44.13,1.92-.19.19-1.42.94-1.59,1.1-.06-.05.3,0,.23-1.15-.06-.28-.17-.51-.33-.71-.19-.2,0-.01,0-.01,16.99,18.81,36.08,37.96,42.7,63.24,2.09,7.79,2.27,19.94-7.31,22.37-11.43,2.68-23.52.24-34.08-4.41-5.88-3-11.88-5.32-18.32-6.23l.79-.37c-.62,1.04-1.36,2.06-2.39,2.88,0,0-.15-1.35-.15-1.35,0,0,.75.35.75.35,0,0,.46.21.46.21,0,0,0,.51,0,.51l.12,20.24s0,.51,0,.51c0,0-.44.27-.44.27,0,0-.75.46-.75.46l-5.18,3.22c.65-.65,4.24-4.97,4.75-5.48.37-.48.33-.36.81-.31,9.26,1.11,18.59,1.72,27.73.36.63-.29,3.49,1.49,1.81.71,3.81,2.29-.74,4.28-1.13,4.02-2.2.48-7.31.73-9.58,1,0,0-6.34.45-6.34.45-2.04-.11-5.33.92-6.98-.65,0,0,1.84-.43,1.84-.43-.16.28-.49.97-.66,1.25,0,0-.79.03-.79.03,0,0-6.28.24-6.28.24l1.2-1.23.12,8.31s0,.74,0,.74c0,0-.61.47-.61.47-.16,0-.25.75-.26.98,0,0-.16.18-.16.18l-.59.66s-2.16,2.38-2.16,2.38c-.53-9.11-.11-18.93-.22-28.05-.03-2.83-.18-5.01-.94-7.97,0,0,1.27,1.4,1.27,1.4-.29-.07-.57-.15-.96-.39-2.98-2.28,1.87-5.21,3.32-6.91.06-.09.28-.26.32-.34.07-.08-.13.16-.18.33-.03.09-.06.19-.07.28-.03.17-.14.78.37,1.4.55.61,1.19.59,1.42.56-10.26,3.19-25.18,4.61-36.09,9.33-29.22,8.78-62.84,4.81-88.24-12.3-2.67-1.86-5.3-4.22-7.63-6.52-1.16-.89-2.17-2.84-2.28-4.17.02-.32.02-.76-.13-.97,0,0,.42.56.42.56-9.79-9.65-13.41-24.5-10.7-37.73,4.97-26.15,20.98-47.76,38-67.35,17.08-18.71,35.61-36.96,44.06-61.46,0,0,11.99-36.47,11.99-36.47,8.15-22.51,16.94-51.02,42.84-58.1,0,0,1.14-.42,1.14-.42.89,1.9.1.59.29,1.01l-.16.03c-.1,0-.32.05-.57-.17,0,0-.22-.32-.22-.32,0,0-.41-.65-.41-.65l-.24-.38c5.51-2.5,11.5-1.45,17.04.55h0ZM341.67,784.71c-4.89-.97-10.86-2.41-15.63,0,0,0,.27-.61.27-.61.11.17.31.35.39.51-.19-.14-.28-.12-.3-.11.21.42-.45-.95.37.98,0,0-1.1.45-1.1.45,0,0-2.22.91-2.22.91-23.57,8.5-30.61,35.67-38.26,57.07,0,0-11.39,36.8-11.39,36.8-4.38,12.25-10.73,23.78-18.5,34.21-24.06,29.96-87.01,87.79-52.64,127.58.91.97,1.18,2.57,1.15,3.77,0,0-.03-.48-.03-.48,3.8,5.4,12.09,10.57,18.45,13.74,22.53,10.52,49.62,13.01,73.47,6.07,11.12-4.59,25.08-5.58,37.06-8.9,1.51-.22,2.5,1.85,1.45,2.93-1.12,1.25-2.75,2.5-3.85,3.73-.13.05-.38.67-.13-.06.14-.57-.46-1.37-.54-1.29-.13-.08-.11-.05-.11-.05,0,0,1.08-.37,1.08-.37.39,3.52,1.17,5.56,1.01,10.11,0,7.86-.53,16.87-.34,24.66,0,0-2.3-.96-2.3-.96.36-.46-.08.47-.06.49.06-.8.48-1.93,1.43-2.53l-.6,1.2c0-1.15,0-9.09,0-9.78,0,0,1.2-.03,1.2-.03l6.5-.18s-1.12.67-1.12.67c0,0,.33-.61.33-.61l.66-1.23s1.19.8,1.19.8c.85.72,1.2.37,2.2.41,0,0,3.16-.16,3.16-.16,4.82-.44,11.61-.48,16.35-1.37.1-.08-.19.25.03.02.08-.09.12-.26.09-.12-.12.24.56.8.5.63l-.6-.25c-.24-.39-1.46-.52-.67-.48-9.45,1.29-18.98.54-28.26-.68,0,0,.81-.31.81-.31,0,0-.76.85-.76.85,0,0-1.18-1.4-1.18-1.4,0,0,.75-.45.75-.45l-.44.78.12-20.24.46.72c-.4-.2-1.49-.71-1.91-.92,0,0,1.02-.79,1.02-.79.93-.69,1.68-1.81,2.3-2.87,6.72,1.01,13.25,3.49,19.23,6.38,10.59,4.17,26.51,8.4,36.56,1.73,4.44-4.91,3.11-11.8,1.78-17.66-6.66-24.29-25.99-43.03-42.87-60.91-2.1-1.88-.23-4.16,1.51-4.87,0,0-1.22,1.97-1.22,1.97l-.08-.84c-.11-.89-.04-.73.42-1.37,0,.05-.27.51.17,1.28.68.83,1.03.7,1.3.64-1.24.2-2.14.98-3.6.32-.68-.35-.95-.74-1.17-1.04l3.23.06c-2.34,2.1-3.35,1.66-5.78,2.19-.44.04-.87.08-1.35.09-.6-.11-.67.27-2.26-.48-3.18-3.29-4.91-6.27-7.51-10.43-1.89-6.75-3.31-13.86-.4-20.21,5.96-9.86,16.76-20.54,23.9-29.45.08-.12.32-.33.46-.39,1.48-.83,1.56-1.89,1.68-3.28.63-.38,1.83-.95,2.45-1.32,5.1-8.76,18.47-28.93,20.3-42.07,0,0,1.74,1.07,1.74,1.07-.63.24-2.43-.3-2.8-1.51-.35-.96-.25-1.58-.21-2.14,1.73-5.26,3.42-14.29,3.84-17.34.15.07-.12.54,1.23.96,1.68-.21,1.45-.87,1.63-1.17-.02.15-.05.61-.06.77,0,.62-.08,1.6.03,2.22,0,0,.02.1,0,.01,0,0-.06-.11-.06-.11-.08-.16-.3-.39-.51-.47l-1.47.08c-.44.45-.17.38-.24-.1-.04-.46-.03-1.2-.03-1.61,0,0,.02-3.05.02-3.05,0,0,.02-3.05.02-3.05,0-.41,0-1.15.05-1.61.08-.48-.18-.57.23-.17,0,0,2.13-1.03,2.13-1.03,0,0-.22,2.07-.22,2.07l-.13,1.06c-.03.23-.02.27-.13.72-.66,1.85-2.97,1.01-2.72-.74.26-25.76-13.85-54.95-38.47-66.49,0,0-1.12-.55-1.12-.55-.21-.21-.31.09-.64-.55.01-.3.28-.75.31-.49h0Z"/>
      <path class="cls-4" d="M399.27,893.75c2.52,4.36,6.21,8.41,9.27,12.23-.03.17-.02,1.05-.04,1.2-.21.11-1.35.92-1.57,1.05-.2.15-.45.34-.54.44-.18.05.39,0-.19-.72-.35-.12-.17-.03-.18-.08l.33-.11c1.08-.42,2.21-.97,3.3-1.49,0,0,.29.21.29.21,1.6.87,7.25-2.56,9.17-3.18,8.64-4.07,21.28-9.68,28.56-12.69,3.09-1.25,6.78-1.32,10-1.91,1.46-.13,5.64-.68,7.08-.7,1.37-.06,3.33-.2,4.13,1.21,0,0-1.82-1.04-1.82-1.04,1.01-.1,2.14.65,2.49,1.27,1.39,2.45.57,3.81.85,5.97,0,0-.35-.92-.35-.92.2.32.86,1.21,1.07,1.53-.46,3.62.77,7.34,2.88,10.52,0,0-.39.96-.39.96-.07.16,0-.2-.07-.2-.09-.13-1.26-.96-.35-.45.08.1.71.27.73,1.37-.22.94-.55.91-.66,1.05-.15.1-.24.14-.33.18.4-.19-.82.41-.75.39,0,0,.56-1.51.56-1.51.74,1.99.44,4.59-.89,6.26-1.27,1.7-2.91,2.8-4.52,3.78,0,0,.45-.79.45-.79-.6,3.25-2.98,4.44-4.82,5.88-18.94,9.31-37.25,21.2-56.43,28.97-4.96,1.87-10.5-.1-14.9-2.34-8.64-4.42-16.3-9.85-23.5-16.42,0,0,2.3.69,2.3.69l-.89.18-1.48.3c-2.66-2.8-5.52-7.4-8.71-9.08,0,0,.31-.07.18-.05-.32-.02-.33.48-2.2.08-1.81-.59-2.14-3.06-1.2-4.37,9.6-13.63,17.88-28.6,23.56-44.35,0,0,.4,1.2.4,1.2-.68-.57-.79-1.3-.8-1.8.2-1.59.45-2.92,2.52-3.51,0,0,.8-.16.8-.16.15,2.12,1.68,4.09,3.3,6.19,3.92,5.1,9.24,9.77,13.32,14.77h0ZM398.83,893.96c-2.46-2.81-6.59-6.61-9.26-9.34-2.8-3.32-7.13-6.22-8.6-10.72,1.38,1.37,1.03.44.56,1.81-1.19,15.81-12.48,35.85-20.98,48.01-.04.07-.07.15-.04.08.01-.07.05-.09.08-.49.23-.67-.78-2.05-1.52-2.21-1.55-.32-1.25.05-1.27-.08,5.89-1.46,9.72,5.92,13.19,9.33,0,0-2.45-.84-2.45-.84l.89-.18,1.32-.27.99.96c8.05,7.45,17.46,14.94,27.92,18.63,2.02.64,3.6.58,5.84-.02,17.44-5.62,33.74-15.74,50.64-22.95,3.31-1.96,8.76-4.48,9.8-8.12.04-.56-.02-.53.45-.79,2.73-1.62,5.5-4.33,4.03-7.61,0,0-.39-.94-.39-.94,0,0,.95-.58.95-.58s.8-.49.8-.49l.09-.05s0-.01-.05.02c-.03.09-.26-.02-.46.81.06,1.09.51,1.03.62,1.17-1.23-.66-1.26-2.33-.55-3.21,0,0-.03,1.53-.03,1.53-2.24-3.08-3.82-6.95-3.75-11.04,0,0,.34,1.1.34,1.1-.22-.26-.82-1.04-1.03-1.28,0,0-.06-.57-.06-.57,0,0-.22-2.05-.22-2.05,0,0,0-.08,0-.08.12-.52-.06-1.57-.23-1.83-.02.07.47.42.8.37l-1.82-1.04c.12.43.66.86,1.08.89,0,0-.08,0-.12.01-.21,0-1.17.03-1.41.05-4.15.37-9.41,1.19-13.49,1.99-6.89,1.98-14.36,5.58-21.63,7.99,0,0-9.95,3.55-9.95,3.55-2.64.61-8.3,3.85-10.71,2.23,0,0,.65.04.65.04-1.37.39-2.83,1.34-4.2,1.15-.74-.78.03-1.01-.08-1.03.47-.48,1.66-1.03,2.2-1.4,0,0-.23.38-.23.38l.08-.96c-2.33-2.21-6.42-8.1-8.81-11.97h0Z"/>
      <path class="cls-4" d="M201.53,1046.13c25.73,23.52,64.49,26.62,97.24,18.82,11.33-2.55,22.54-6.01,34.09-8.14,0,0,.14,0,.14,0,.11,0,.5.14.63.53.08.51.01.46-.07.66-.07.21-.48.59-.62.77-.36.31-1.46,1.65-1.82,2.03-.36.41-.8,1.01-.89,1.22.17-.11-.16,1.86-.28,1.47l-.18.59c-10.59,9.31-25.65,10.13-38.78,13.06-27.12,3.93-54.73,3.77-81.92.77-13.82-1.45-28.59-4.2-40.39-13.02-.05-.21.16-1.28.08-1.43-1.15-1.4-.86-3.8.36-5.39,0,0,1.15-1.93,1.15-1.93l1.59,1.56.26.26s0,0-.14-.05c-.02-.07-.93-.13-1.33.33,4.96-4.53,11.62-6.28,17.72-7.34,0,0,.7-.28.7-.28,0,0,.03-.09-.19.27.02-.03-.18.34-.04.72.19.41.32.43.34.47.12.12.4.16.31.14.04,0-.12-.01-.23-.02l-.58-.02c-.41-.52-.98-1.31-1.38-1.83,3.27-4.51,11.09.58,12.94-4.61,0,0,.02-.1.02-.1l.04-.04.35-.34c.7-.62,1.18.17.88.87h0ZM201.07,1046.27l.02-.52c.02-.11-.08-.3,0-.18.22.05.03.03-.03.15,0,0-.26.3-.26.3l.07-.14c-.83,5.46-9,2.36-11.58,5.23,0,0,.04-1.28.04-1.28l.65.71-.84-.36c.41,0,.75-.1,1.27.22,1.75,1.88-1.95,2.86-3.32,3.26-5.44.81-10.37,3.48-14.28,7.22-1.48.94-2.48.12-3.4-.67,0,0,2.74-.38,2.74-.38-.39.63-.59,1.58-.53,1.28-.09-.22.06,0,.48.75.38.74.46,1.64.4,2.29l-.79-1.72c10.97,7.28,24.59,9.09,37.88,10.56,26.89,2.56,54.06,3.45,80.98.91,12.29-1.25,29.67-3.83,37.84-10.23.35-1.51.3-.75.37-2.08.79-1.36,1.48-2.08,2.46-3.12.11-.1.94-1.08.99-1.14,0,0,0,.03,0,.03.04-.06-.12.15,0,.48.18.5.56.49.83.47-17.16,3.26-33.29,10.97-50.69,13.71-28.66,3.56-61.93-2.72-81.29-25.74h0Z"/>
      <path class="cls-4" d="M382.15,873.94c.37,1.39.47,2.74.32,4.05-.76,1.09-1.76,2.27-2.67,3.23-2.26-1.23-3.73-3.13-2.87-5.56,1.14-2.77,2.96-5.33,2.63-8.47-.05-4.45.81-8.45,1.76-12.64,1.27-.1,2.25-.66,3.53.58.86,1.09.64,1.85.41,2.59-.5.94-.86,2.71-1.61,3.81,0,0-.48,0-.48,0-.81-1.56-1.26-2.42-1.59-4.14-.02-.25-.08-.46-.13-.31-.18.82,1.29,1.78,1.88,1.57,0,0,1.87-2.21,1.87-2.21.85,4.18-.76,8.22-3.09,11.54-1.12,1.61-1.95,3.37-1.65,5.31.01.74,1.05,4.48.3,3.61,0,0-2.64.08-2.64.08.48-.34.99-.64,1.5-.93l-.52.83c.54-.7,1.93-3.23,3.05-2.94h0Z"/>
      <path class="cls-4" d="M373.82,1084.27c-.81.67-1.67,1.3-2.18,2.15-.91,0-1.54-.78-1.77-1.41.75.49.4.26-.36.36-.04-.3-.14-1.19-.18-1.5.32.56-.53.06-1.11.13-1.7-.09-3.64-.04-5.28.14-.14-.18-.9-.82-1.07-1.01,0,0,1.17.06,1.17.06-.74.87-2.35,1.2-2.91-.28,0,0,.88.56.88.56-7.49.48-15.42,2.26-23.06.86-3.3-.65-6.03-.76-9.02-.05-.03-4.79-.18-14.16-.2-18.9-.02-3.65-.62-7.23,3.04-9.54.84-.45,1.81-.41,2.62-.29,6.19,1.27,11.86,3.66,17.64,6.13,9.76,4.97,20.69,6.74,31.52,5.21,8.03-.94,7.79-10.44,6.53-16.74-4.75-25.61-26.98-44.45-43.67-62.93-1.03-.95-.92-3.32.13-4.21.76-.79,1.43-1.1,1.92-1.4l-.95,1.49c-.06-1.03,1.08-2.64,2.33-2.84,18.01-7.33,38.1-1.33,54.75,7.01,9.04,4.36,16.9,14.39,15.17,24.97-3.08,22.58-20.84,39.64-29.44,58.88,0,0-4.78,15.65-4.78,15.65-.46,1.42-2.45,1.67-3.53,1.13-2.84-1.16-5.95-2.23-7.66-4.94,0,0,.61-.07.61-.07.03.59-.58,1.55-1.13,1.41h0ZM373.56,1083.86c1.02-.05.71-1.43.8-2.17,1.27,2.96,5.12,3.99,7.99,4.89,1.01.26,1.44.19,1.72-.41,0,0-.07.18-.07.18l3.73-16c7.55-20.16,24.12-37.17,27.12-58.54,2.49-21.67-35.47-30.91-52.13-30.51-4.07.26-8.12,1.3-11.97,2.67.06-.02.22-.11.31-.22.22-.24.2-.41.2-.37l-.21,1.1c-.42.26-1.7.85-1.8,1.03.03.15.11-.7.05-.47-1.62-2.08,14.63,17.27,14.24,16.75,11.97,14.05,24.32,29.58,28.31,48.01,1.87,6.93,1.5,18.71-7.76,19.9-7.72,1.35-15.29,1.61-23.01-.18-9.07-2.85-19.37-7.89-27.44-10.03-1.43,1.35-.82,2.95-.98,5.88-.12,3.59-.08,13.07-.18,16.77,0,0-2.05-1.77-2.05-1.77,2.93-.34,5.66.29,8.1.82,7.61,1.8,15.27.13,23.12.42,0,0,.19.55.19.55.03.08.07.14.02.1-.03-.06-.35-.13-.4-.08-.07.05.24-.12.45-.3l.64-.54c.3.35.94,1.03,1.25,1.38,0,0-.66-.24-.66-.24,1.76-.03,3.5.09,5.2.3.65.23,1-.14,2.03.83.06.02.05.15.05.19,0,0,.03,1.02.03,1.02,0,0-.51-.47-.51-.47.18,0,.56.04.74.04.12.48.39,1.18.82,1.23-1.31.63,1.74-1.63,2.06-1.74h0Z"/>
      <path class="cls-4" d="M358.8,923.11c1.12-.62,2.77,1.15,1.94,2.49,0,0,.09-.27.09-.27-.08.58.05.96-.73,1.4-.88.16-1.06-.19-1.55-.53,0,0,1.32-.36,1.32-.36-.17,1.26-1.6,1.91-2.67,2,0,0,.67-.3.67-.3-7.2,8.55-13.61,17.99-20.2,27.03-.52.7-2.8,3.83-2.68,4.31,2.2,1.7,8.53,1.78,11.24.36.19.1.95.32,1.16.42,0,0-.72.11-.72.11.35-.18.53-.43,1.33-.49.55-.07,1.11.7,1.04.95.06.48-.03.75-.07,1.16-1.04.36-1.4.53-1.66,1.8-1.38,6.03-1.37,12.36.33,18.32,0,.25.21.5-.11-.06-.65-.58-.84-.31-.71-.4l.84,2.79c-1.98,1.94-5.77,2.15-8.5,2.13-.38-.11-.25.27-1.05-.25-.63-.48-.57-.51-.84-.76-2.77-3.21-4.86-5.81-7.29-9.83-2.09-5.3-2.17-10.62-2.27-16.27.23-2.86,1.42-4.34,2.32-5.91,8.1-12.49,19.52-20.99,28.94-31.54-.02.25-.37,1.23-.25,1.44,0,.07.34.4.08.28h0ZM358.66,923.57c-.36-.35-.58-.39-.64-1.02,0,0,.61.22.61.22-7.12,11.97-17.53,21.5-24.23,32.83-2.19,3.2-1.49,4.94-1.43,8.35-.46,7.73,2.73,12.51,7.22,18.43.47.42-.39-.04.25.01.67-.08,1.33-.14,2-.15,2.04.16,2.07-.17,4.18-1.16,0,0,.84,2.79.84,2.79-.31,0-1.08.36-2.08-.61-.62-.95-.39-1.23-.47-1.44-.97-6.26-.46-12.86.98-19.02.04-1.01,1.05-2.48,2.07-2.7,0,0-.46.6-.46.6.01-.11,0-.22,0-.22-.09-.05.24.4.45.35.17-.05-.47.3-.59.5-.29-.06-1.04-.3-1.34-.36,0,0,.65-.06.65-.06-3.42,1.75-6.97,1.82-10.66,1.61-1.14-.21-2.97-.24-4.14-2.43-.74-2.29.2-3.55.62-4.73,6.44-11.06,14.7-21.06,24.31-29.56,2.02.24,1.59-.8,2.37-2.17,0,0,.51,1.48.51,1.48.08.23.51.3,0,.32-.39.35,0,.01-.03-.22l-.02-.17c.65-.48-.03-1.74-.94-1.47h0Z"/>
      <path class="cls-4" d="M370.5,1084.67c.29,1.65-.48,2.9-1.39,4.15-.77,3.29-4.66,8.61-7.87,11.46,0,0,.54-2.29.54-2.29l.34.73.92,1.97-2.08.73c-2.78,1.37-6.13,1.54-9.51,1.36-.93-.07-3.98-.07-4.47-.53-.8-.75-2.69.38-5.14-1.22,0,0-.89-.58-.89-.58.28-.71.69-1.77.98-2.48,4.44.41,8.89.58,13.32.36,0,0-.61.34-.61.34-.24.21-.07.83.13.94.09.07.18.1.14.09h-.05s-.24-.04-.24-.04c-4.58-.42-9.63.84-14.19.72-1.96-.23-3.9-1.24-5.33-2.62l3.25-2.45c.32.51.66,1.1.8,2,.18.88-.16,2.17-.83,2.88l-2.99.28c.84.53.84.34.9.4-.32.06-1.57-.33-1.92-.85-1.58-1.52-1.72-4.13-1.92-5.91.43-.81.4-1,.98-2.06,1.85-3.34,6.34-1.76,7.22,1.51,0,0-1.41-1.53-1.41-1.53,9.31,3.76,19.64-.13,27.14-6.5,0,0,.28-.23.28-.23l.13-.02,1.94-.27-.45.73c.04-.42-.22-.89.45-1.56.92-.34,1.15.22,1.47.41-.43-.14.28.02.38.08h0ZM370.14,1085s-.2.14-.24.17c0,0-.13-.09-.13-.09-.26-.17-.76-.17-.54-.13.11-.13.07.27.21.53l.24.44c-.42.18-2.04.87-2.49,1.06-1.19,2.93-7.92,8.27-12.74,9.93-5.73,2.38-12.76,2.17-18.45-.77,0-.2-.3-1.21-.36-1.34,0-.05.09.19.83.22.78-.08,1-.52.94-.45l-.5.94.23-1.22c.09,1.24-.05,1.9.38,2.67,0,0,.03.05.03.05-.08-.11-.46-.38-.58-.42-.51-.19-.44-.09-.16-.08.17.08.28-.1,1.21.49l-2.99.28c-.27.33.07.83-.21.09,0,0-7.73-15.99-7.73-15.99,3.18,3.39,11.26,15.4,14.01,15.55,2.54.57,6.73.47,9.38.82,1.12.15,4.41.15,5.21.66.61.41.23,1.53-.42,1.4-4.15,0-8.3.34-12.44.9l1.26-.97-.1.52-.52-1.52c.18.3,3.86-.78,5.2.12-.07.03.51.06-.59-.13,2.02-.21,5.78-.24,7.84-.24.62,0,2.39-.5,3.58-.92l-1.16,2.7c-.15-.47-.64-1.73-.81-2.21,5.22-3.83,8.86-8.14,12.62-13.09h0Z"/>
      <path class="cls-4" d="M360.23,925.03c1.14-.49,2.35.18,3.3.58,2.61,1.37,4.93,2.79,6.68,5.31.74,1.22.07,2.56-.89,3.51,0,0,.62-1.78.62-1.78,2.21,12.11-8.85,20.4-17.01,27.22-1.48,1.08-3.13,1.61-4.45,2.42,0,0-.68-.16-.68-.16-.39-.15-1.44-.28-1.83-.42-1.01-1.87-.19-4.12,1.54-5.1,7.56-4.83,14.69-13.42,15.99-22.16.2-1.93-2.47-4.32-4-5.68-.8-.67-1.85-2.76-.45-3.62-.24.1.04,0,.09-.03.28-.13.86-.31,1.1-.12h0ZM360.22,925.51c-.56-.02-.46.46-1.06.63,0,0,.39-.29.39-.29-.21,1.32,1.98,1.63,3.62,2.79,1.63.99,3.66,2.67,4.15,5.26.5,2.48-.07,4.61-.59,6.52-2.27,9.09-9.72,16.15-18.1,19.67,0,0-.99-1.11-.99-1.11l1.08.51-1.01.04c1.62-.49,2.98-.7,4.24-1.31,8.71-4.66,14.11-15.8,14.23-25.31.04,0,.67-1.56.82-1.44-.03.07.14-.18-.03.16-.14.33-.07.77,0,.83-1.33-2.14-4.27-6.28-6.73-6.94h0Z"/>
      <path class="cls-4" d="M336.47,1098.88c-1.26-1.53-2.65-2.5-2.23-4.91,0,0,.43-1.91.43-1.91l2.07,1.22c1.77,1.05,3.34,2.68,3.8,2.28,5.51,1.43,11.03,1.92,16.92,1.29.71-.03,1.56.47,1.91,1.1,1.75,3.55-3.61,4.32-6.01,4.46-3.77.5-7.71.05-11.34-.71-1.8-.27-4.68-.78-5.56-2.83h0ZM336.87,1098.61c1.96.64,2.9.01,5.11-.51,4.86-.9,9.87-.53,14.49-.39-.91.69-.81,2.33.3,2.71-2.39-1.38-7.38-2.48-10.89-1.15-2.11.51-4.47,1.06-6.75.43-2.11-.55-3.32-2.52-4.42-3.98,0,0,2.5-.68,2.5-.68-.7.61-.12,2.6-.35,3.58h0Z"/>
      <path class="cls-4" d="M371.67,1086.07c-.79,4.81-2.29,9.57-6.89,11.9,0,0-4.27,2.31-4.27,2.31-.55.1-1.01.31-1.69.09-.88-.23-.96-1.67-.77-2.2.75-2.13,2.39-3.73,3.77-5.32,1.25-1.97,2.3-4.28,4.11-6.25,1.37-1.57,3.27-3.09,5.34-3.58.5-.1.96.37,1.3.67-.29.81-.54,1.72-.91,2.36h0ZM371.21,1085.92l-.8-1.85c.25.59.49,1.19,1.27,1,.17-.05.16-.02.09.09-.37.42-.76,1.29-1,1.79-1.83,3.95-3.82,8.65-8.08,10.78-1.58.74-3.22,1.94-2.53.98l-.23.05c1.35-.34,2.56-1.22,3.22-2.49,1.82-3.95,3.94-8.23,8.05-10.35h0Z"/>
      <path class="cls-4" d="M370.19,931.87c-.05.69-1.27,2.35-2.16,3.04-1.48-2.41-3.37-2.97-5.21-5.69-1.33-2.18-3.2-3.55-5.25-5.13-.16-.55-.39-.77-.35-1.52.05-1.6,2.27-1.97,3.14-1.88,5.81.8,8.58,5.92,9.82,11.19h0ZM369.71,931.81c-4.21-.69-7.01-4.88-10.09-7.31-1.06-.43.54-.23.56-1.35-.03-.21-.1-.14-.14-.08l-.21-.5c.69,4.5,5.79,2.89,8.09,6.03.89,1.02,1.6,2.55,1.5,4.14l-2.07-.92c.42.02,1.22.28,2.35-.02h0Z"/>
      <path class="cls-4" d="M362.59,1082.31l.7.68c-.69-.46,3.25.26,4.14.38,0,0-.37-.07-.37-.07,1.72-.27,3.22.95,3.66,2.68-2.57,2.51-4.9,5.12-7.93,7.48-2.63,2.06-6.15,3.41-9.61,3.63-3.74-.09-11.39,1.05-15.05-.11-.92-.29-2.22-1.15-2.66-2.51,0-.3-.46-.41.45.52.93.45.77.19.73.3-.68.28-2.91,1.17-3.61,1.45,0,0,.14-3.24.14-3.24.31-4.43,2.27-6.99,2.38-10.47,8.18-1.2,16.45-1.42,24.7-.6.26.14.53.03.13.29-.18.39.04.09,0-.09l-.16-.78c.75.08,1.7.28,2.34.47h0ZM362.35,1082.73l-1.37.37.56-.68c.03.29.36.56-.16,1.35-.82.57-1.1.28-1.32.38-7.15,1.96-14.73,3.2-22.16,3.56,0,0,2.31-1.94,2.31-1.94-1,3.46-2.62,5.77-3.06,8.18l-2.56-2.15,1.41-.23c.34.05.61-.28,1.9.36,1.25,1.17.79,1.53.92,1.59-.05.22.02.48.52.85,3.83,2.1,9.25,1.81,13.4.49,5.81-2.37,9.53-7.31,15.1-10.52,0,0-.52,1.85-.52,1.85.16.12.26-.12-.35-.27-1.52-.43-2.82-1.51-4.23-2.25,0,0-.24-.14-.24-.14,0,0-.01-.06-.01-.06l-.14-.73h0Z"/>
      <path class="cls-4" d="M390.96,1057.63c-2.55-.39-3.07-2.9-3.84-4.43-10.8-17.32-22.91-34-34.39-50.93-3.65-5.77-9.66-9.3-12.67-15.5-.17-.54-.42-1.28,0-2.27,1.31-2.08,4.34-2.01,6.01-.52,1.61,1.71.88,4.36,1.42,5.46.3.37,1.06,1.15,1.69,1.73,16.82,15.01,29.43,34.95,39.09,55.25,1.11,3.31,4.02,7.79,2.68,11.21h0ZM390.81,1057.17c-1.75-6.54-7.1-13.05-10.79-18.97-10.79-15.21-20.5-30.93-33.58-44.36-.67-.77-1.24-1.33-2.01-2.5-.89-1.83-.43-2.79-.47-3.7-.1-2.05.42-1.8-1.41-1.97-.3.03-.3.09-.25-.05.2,2.35,2.55,5.08,4.35,7.06,7.41,8.54,14.63,17.17,21.95,25.82,7.97,10.53,15.41,21.75,20.08,34.18.41,1.81.78,3.76,2.14,4.5h0Z"/>
      <path class="cls-4" d="M406.7,1006.62c-4.88-1.24-7.84-4.85-11.42-6.42-7.78-2.78-15.48-7.34-23.81-8.75-2.48-.48-7.57-.86-9.95-1.88-6.39-5.85,11.56-5.8,14.29-5.59,12.24.27,25.5,7.55,30.54,19.02.27,1.05,1.04,2.05.35,3.62h0ZM406.48,1006.19c-8.81-13.95-28.55-19.12-44.02-18.38,0-.47-.14-.18.14-.02,6.8,3.22,15.11,1.51,22.29,3.87,8.71,1.81,16.34,8.08,21.59,14.52h0Z"/>
      <path class="cls-4" d="M362.36,1082.3c3.28-3.18,6.59-2.21,9.09,1.15.17,1.78-1.14,2.22-1.54,3.56-1.76.95-4.09.73-5.77.08-1.72-.86-3.54-2.25-5.23-3.12.95-.66,2.39-1.72,3.45-1.67h0ZM362.58,1082.73c-.07,1.02,0,1.72.01,2.23l-1.54-2.41c2.34-1.38,4.82-.57,6.5.61,0,0,1.13.68,1.13.68l-.95.36c1.12-.15,2.47-.61,2.3-.3.06-.2-1.34.02-2.08.46-1.86.68-3.94-.11-5.39-1.63h0Z"/>
      <path class="cls-4" d="M359.21,925.44c1.75,1.75,3.52,2.27,5.56,3.68,8.12,6.47-.52,20.15-6.72,24.99-2,1.5-4.05,2.24-5.95,3.34-4.21,2.75-6.11,5.96-11.91,5.98-13.43,1.53-10.65-7.52-4.51-15.05,6.04-7.94,12.26-15.83,19.84-22.36,1.27-.77,2.35-.68,3.69-.58h0ZM359,925.88c-.79.39-2.05.66-2.5,1.35-4.16,6.29-8.16,12.98-12.73,18.99-2.8,4.11-7.17,7.92-9.06,12.35-.1.63-.24.51.09.89,2.44,1.41,8.43,2.05,11.31.73,1.43-1.12,3.29-2.94,5.16-4.06,7.28-4.28,10.7-12.94,13.02-20.38,1.35-4.42-4.06-6.18-5.3-9.86h0Z"/>
      <path class="cls-4" d="M395.66,892.15c9.83-2.37,13.51-3.92,23.58-5.35,3.93-.51,8.02-.57,11.96-1.16,0,0-1.59-1.46-1.59-1.46l-3.55-3.24.32,1.54c2.81-6.18-4.72-20.71-10.7-22.64-10.5,3.53-22.83,2.96-32.22,9.66,4.86-1.79,10.55-3.69,16.12-4.17,5.54-.79,11.24-1.23,16.68-2.93h-.51c1.23.41,2.6,1.76,3.74,3.24,2.93,4.09,7.52,11.93,4.9,16.32,0,0,.79.66.79.66l3.65,3.04.15-1.68c-12.85,3.51-22.49-.05-33.33,8.17h0Z"/>
      <path class="cls-4" d="M419.84,860.18c3.63-3.6,8.28-5.27,12.77-6.97,7.88-2.57,16.01-4.76,25.11-4.54,1.49.13,5.24.39,6.01,3.02.13,1.36-.82,1.9-1.59,2.5-2.75,1.7-6,2.76-9.5,3.42-.42.02-.66.18-1.19-.09-.19-.07-.52-.59-.39-.82.1-.22.1-.17.24-.29,0,0,.91.89.91.89-2.12,4.78,11.13,16.49,4.74,20.12-6.7,2.67-16.64,6.82-23.39,5.21-1.75.93-3.59,2.11-5.93.88-2.24-1.4-3.17-4.1-4.17-6.43,0,0,.39.5.39.5-2.81-2.18-3.37-5.99-3.78-9.08-.33-2.55-.16-5.95-.23-8.31h0ZM420.01,860.27c.86,4.48.12,12.5,4.59,15.89,2.27,5.61,3.87,7.05,7.85,4.35,8.54.68,16.71-1.42,24.03-3.96,5.91-3.38-7.78-15.27-5.25-20.04,0,.03,1.04.95.88.92.04-.09.08-.06.03-.36-.14-.42-.49-.5-.55-.53-.03,0,0,0,0,0,.06,0,.42-.06.49-.08,2.05-.52,3.99-1.29,5.82-2.11,1.49-.82,3.53-1.49,4.05-3.08-2.14-1.21-5.24-.82-7.36-.74-11.95,1.45-24.47,3.4-34.57,9.75h0Z"/>
      <path class="cls-4" d="M420.56,859.18c-3.41-6.78-4.94-.03-4.8,1.78l7.88,21.28c5.82,8.85,10.83,1.93,3.78-5.52-2.64-5.61-4.08-11.99-6.87-17.53Z"/>
      <path class="cls-4" d="M469.05,887.47c-2.64-6.68-4.89-.42-4.94,1.31l5.49,20.74c4.81,8.82,10.52,2.67,4.35-4.93-2-5.51-2.74-11.67-4.9-17.12Z"/>
      <path class="cls-4" d="M466.81,890.16c1.95,5.72,3.95,11.45,5.86,17.46l-.65-.68c3.13.47,6.47.68,9.45-.26,4.82-2.89,9.49-5.61,14.9-6.52,4.87-.05,9.01-1.76,12.42-4.9.28-.27.34-.49.24-.9-.71-2.18-3.73-4.13-3.22-6.73.72-1.96-2.11-3.99-2.16-6.17-.49-3.3-4.11-4.89-6.68-5.79-3.83-1.3-7.33-1.04-10.49,1.1-6.52,3.73-12.9,8.76-19.67,13.39h0ZM466.63,890.09c6.21-5.93,12.36-10.93,19.03-14.8,3.16-2.16,7.05-2.44,11.03-1.79,5.95.98,10.1,4.15,7.52,7.94-.83,1.22,1.56,2.97,2.29,4.66.24.67.17,1.36.05,1.91-.09,2.26,2.73,3.69,3.62,6.15.34.81.14,1.88-.34,2.31-3.22,3.65-7.86,5.86-12.85,6.01-5.2,1.09-10.02,3.97-14.8,6.66-3.57,1.11-7.29.46-10.9-.31-1.79-6.7-3.3-13.08-4.65-18.74h0Z"/>
    </g>
    <path class="cls-4" d="M506.07,889.78s47.51-10.36,61.32-13.22c4.59-3.75.51-3.67.51-3.67,0,0-55.69,10.73-61.14,12.98-5.45,2.25-.69,3.91-.69,3.91Z"/>
    <path class="cls-4" d="M541.52,854.4s-17.7,2-29.13,2.18c-10.35.16-19.37-1.21-31.3-.06-11.94,1.15-28.71,3.97-30.06,2.28-1.35-1.69-1.34-3.76,3.72-3.8,5.05-.04,19.98-2.73,31.57-3.32,7.14-.36,30.05,1.56,35.13,1.06,9.5-.94,19.57-2.21,19.57-2.21l.51,3.87Z"/>
    <path class="cls-4" d="M464.93,973.14c1.57-1.99,1.92-4.62.79-5.86-.73-.8-1.9-.76-3.06-.15-1.72-9.68-7-40.85-7-40.85l-2.75,1.06,7.39,42.18c-1.06,1.83-1.24,3.91-.26,4.98.53.58,1.29.72,2.11.54.04,1.75-.07,3.95-.21,7.39-.23,5.42,2.03,3.4,2.23-.07.13-2.22.6-6.37.68-9.15.02-.03.05-.04.08-.07Z"/>
    <path class="cls-4" d="M449.18,893.18c-1.84-10.8-2.17-12.76-2.17-12.76l-2.81.74,2.23,12.72c.89-.24,1.81-.54,2.75-.71Z"/>
    <path class="cls-4" d="M299.73,854.93c3.12,39.19-20.29,77.96-53.69,97.52,30.34-23.34,52.44-58.63,53.69-97.52h0Z"/>
    <path class="cls-4" d="M221.47,1000.05c2.62,9.05,6.16,19.1,12.62,25.9,7.61,6.26,16.5,10.31,25.67,13.81-22.67-4.97-35-16.42-38.3-39.7h0Z"/>
  </g>
  <g>
    <path class="cls-4" d="M-31.72,247.77c-.03,2.67-1.43,6.51-.89,8.84.6,2.59,4.99,1.88,7.43,2.47,22.48,5.47,45.81,12.11,68.43,16.56,5.32,1.05,24.7,2.29,27.55,5.22,1.4,1.43,1.66,5.23,3.21,5.72,1.16.36,3.08-1.17,4.52-1.3,7.33-.66,12.75,4.26,18.63,7.13,1.54.75,6.89.78,5.95,3.47-.58,1.65-4.86,3.09-3.83,7.52.31,1.34,5.9,4.63,7.5,5.16,1.05.35,6.75,1.73,5.68-.71-1.78-4.06-13.1-1.33-8.91-8.09.28-.45,3.87-4.51,4.17-4.63.93-.39,16.38,1.13,17.99,1.75,1.25.48,2.05,1.52,2.32,2.75.61,2.8.23,15.9,1.59,17.29,17.05.85,31.71,4.75,44.94,15.02,1.16.9,1.83,2.26,2.95,3.19,2.05,1.71,4.29,1.79,5.24,5.02,2.06.51,1.96-.2,1.26-1.86-1.58-3.75-5.22-5.47-6.79-9.15,7.12-6.13,11.46-3.19,17.64,1.8,6.22,5.01,13.86,14.74,15.88,22.21,1.98,7.34-.25,16.11,10,18.57,1.66.4,2.7.99,2.66-1.11-.09-4.22-.14-9.01-2.33-12.68-1.56-2.6-4.64-4.05-5.62-5.65-1.77-2.91-1.46-6.5-4.66-10.89-3.22-4.4-16.74-14.16-17.41-15.65-.92-2.08,2.06-1.14,2.76-1.22,7.58-.84,16.71,0,24.45.42,1.67.09,2.8-.38,1.77-1.81-1.04-1.45-14.33-5.48-16.89-5.74-3.97-.39-13.69,2.1-15.89,1.37-1.26-.42-4.44-5.04-4.33-5.76.38-2.33,9.99-.31,12.23-.29,5.3.03,23.57-.8,27.72-2.44,2.29-.91,4.42-5.52,6.98-7.51,2.67-2.09,7.53-4.12,11.02-4.51.16-1.84-5.48-1.62-6.54-1.43-2.81.49-9.64,7.92-12.94,9.52-.91.44-7.31,2.26-7.71,2.22l-27.86-2.73c6.13-4.87,16.17,1.02,23.8,1.39,2.76.13,5.94,0,8.13-1.75-4.88-3.45-9.59-7.67-16.1-8.06,5.33-4.54,8.34-10.19,8.29-17.12-18.13-4.31-18.15,13.59-25.98,21.71-4.02,4.17-4.21,1.39-8.09.94-1.89-.22-3.59.13-5.46-.26-12.3-2.6-24.02-8.1-36.59-9.9-2.26-5.66-3.86-11.53-7.39-16.67,9.89,3.06,21.53,1.05,31.71-.62,7.65-1.26,18.6-5.21,25.91-4.35,4.09.48,9.1,3.55,13.19,3.94,9.39.9,21.61-2.97,31.05-2.04,10.96,1.08,25.05,8.05,35.93,7.14,5.46-.45,14.27-5.55,18.93-1.39.57.51.57,1.74,1.11,2.3,5.93,6.2,4.53,9.81,7.49,16.87,4.16,9.91,8.53,7.68,15.07,12.91,3.37,2.69,3.67,8.22,6.31,12.34,4.98,7.79,8.06,9.8,12.68,19.23,1.16,2.37,4.25,2.73,1.94,6.2,1.7.51,2.21-.21,3.19-1.3,5.15-5.77-4.72-13.54-4.04-19.7,25.47,3.45,40.88,23.79,61.99,34.99-1.62,3.58-5,6.11-6.19,10.08-.8,2.65-.81,5.42-1.15,8.12l9.12-3.07,5.02-4.53c1.87.24,4.91,5.08,8.28,6.35,3.06,1.15,11.92,3.99,12.82.2,1.58-6.65-5.51-11.79-11.23-14.04-4.32-1.7-10.33-2.55-14.09-4.63-1.08-.6-2.47-.97-1.08-2.32,2.51-2.44,24.46.68,29.17.9,2.85.13,12.04.19,14.09-.41,1.56-.45,1.62-.07,1.55-2.09-17.28-3.26-36.79,1.75-53.15-5.16-13.38-5.65-21.6-19.4-35.33-25.48-1.94-.86-9.27-2.71-9.61-3.06-.5-.51-.35-3.76-.74-4.87-.87-.73-12.62,2.85-16.97-.17-2.76-1.92-.64-7.26-1.32-8.47-.32-.57-9.77-5.14-11.77-6.84-9.15-7.79-11.28-26.01-8.78-36.72.87-3.73,4.05-4.36,7.43-5.87,2.14-.96,16.21-6.83,17.14-6.98,2.08-.35,4.62,1.38,7.02,1.64,7.82.85,14.74-4.02,22,3.05,1.85,1.8,2.42,4.17,4.06,5.94,10.19,10.98,28.05,15.53,37.36,27.54-7.78,2.61-19.29,5.08-21.67,13.31l18.3-2.19c-.68,7.93,4.72,11.84,11.63,15.06,1.77.04,2.52-5.94,3.38-7.25l-.12-7.85,14.66,1.94c2.19-1.47-6.41-7.73-7.35-8.41-1.54-1.11-2.68-1.67.27-1.11,4.67,2.66,9.13,5.62,13.46,8.73,3.76,2.7,8.57,7.76,12.04,9.79,3.14,1.84,9.67,3.09,12.32,5.07,1.71,1.28,2.18,4.15,4.28,5.77,1.52,1.18,4.41,1.74,4.82,2.2.44.49.74,5.85,1.29,7.59,1.99,6.35,9.24,10.05,14,14.62,3.8-6.94,2.69-9.82-2.59-15.17-3.42-3.48-8.04-5.14-10.04-9.5-.4-.86-1.83-.96.17-1.97,1.71-.86,8.05-1.26,10.38-1.35,2.27-.09,7.63-.26,9.56-.08,3.03.28,7.45,2.66,10.11,2.64,2.75-.03,13.95-5.8,18.12-6.7,2.88-.62,5.37-.97,8.28-.44,4.35,1.63,4.54-.13,7.11.26,3.27-.35,6.27-3.81,9.69-4.04,3.19-.21,10.93,1.76,15.37,1.93,9.51.38,24.38-1.96,32.85.29,2.81.75,3.36,3.82,4.98,4.24,1.26.32,2.89-.94,4.64.11,1.3.77,2.29,3.69,2.83,5.14,1.78,4.77,3.68,12.68,5,17.85.86,3.39,1.99,6.83,1.23,10.35,4.15-.9,3.27-4.7,4.54-7.52,2.99,1.95,8.69,5.8,8.88,9.56.38,7.5-14.6,10.45-18.56,14.84-1.05,1.16-3.56,7.44-2.98,8.23,4.84-1.37,12.43-.61,13.5-6.65,4.14,1.55,6.76,5.69,12.17,5.17-1-4.68-3.24-9.87-8.25-11.78l7.92-9.16c15.95,9.05,16.98,29.48,8.43,43.66,4.32,1.49,3.95-2.55,5.42-5.43.47-.91.37-2.25,1.76-1.82,1.68,8.1,7.08,15.05,16.23,16.53.6-8.9-7.6-15.96-16-18.52,1.64-3.97,2.58-8.83,2.45-13.12-.21-7.15-8.18-13.1,4.53-13.85,4.83-.28,9.29,1,13.91,1.63-8.9-8.09-29.63,1.05-33.76-11.78,1.82-1.16,8.5,5.95,8.41.83-11.01-4.47-23.69-11.81-26.58-23.56-2.15-8.72-1.42-10.58,8.5-10.14,8.01.35,12.87,2.11,19.38,6.09,16.27,9.95,35.74,13.44,50.26,25.86,10.55,9.03,8.32,15.94,13.46,26.76.93,1.96,2.96,3.45,3.46,4.66.83,1.99-3.98,12.09,1.98,15.11,1.8-4.51-3.8-8.23,1.74-10.77.16,2.96,6.3,6.35,6.54,3.12.19-2.62-10.72-5.31-3.68-11.53.26-.23,4.56-2.72,4.84-2.76,1.65-.21,5.86,9.13,7.66,11.21,1.94,2.24,3.96,3.31,6.15,5.07.4.32,2.14,4.52,3.84,1.75,7.11-11.56-6.98-16.12-13.43-22.29-4.38-4.18-2.53-6.35-3.83-8.78-1.08-2.02-5.85.03-4.48-3.36,7.96-1.62,14,1.61,21.01,4.32,1.03.4,3.15,1.81,3.94.61-3.03-4.33-7.21-7.19-12.61-8.46-8.83-2.07-23.14.79-28.18-7,5.06,2.35,10.39,1.07,15.82,1.05-6.34-4.46-22.82-4.01-25.46-12.22-1.57-4.88.13-8.51,5.92-8.05,2.05.16,4.95,2.31,8.19,2.78,7.43,1.07,19.53-2.51,21.85-9.88l-16.3-1.6c-5.65-.55-10.83,4.09-14.68,5.28-5.45,1.69-20.21-1.22-25.35-3.73-2.67-1.3-6.15-5.6-7.51-6.07-1.42-.49-4.11.47-6.15.3-14.77-1.27-27.77-3.66-42.22-5.96-1.36-.22-5.68,1.13-3.23-1.52,2.54-2.73,23.29,3.07,27.75,3.7,9.89,1.39,9.46-1.59,17.2-3.48,16.44-4.03,35.38,5.58,52.31,2.63,7.3-1.27,12.1-5.15,19.16,1.58.47-1.44-.53-2.93-1.74-3.65-1.89-1.12-4.94.15-3.89-2.88,8.56-.98,18.26,8.28,26.3,5.37.91-.33,2.19-.59,1.47-1.66-.31-.46-4.42-4.65-5.09-5.15-2.15-1.58-4.56-2.68-7.29-3.04,1.12-1.87,4.27-1.8,6.15-3.44,2.62-2.29,4.16-7.16,4.96-10.4-11.76-3.36-20.71,2.29-22.98,13.5-5.14,1.42-9.29,3.84-14.79,4.7-8.9,1.39-21.69.76-30-2.49-1.89-.74-2.67-2.89-5.31-2.97-6.41-.2-19.54,6.03-27.44,6.22-11.95.3-26.85-4.51-39.81-4.86-4.67-.13-9.93.63-14.46,1.62-.91-3.78-2.44-8.25-4.2-11.72-3.46-6.82-8.16-11.3-12.23-16.86-1.29-1.77-1.38-4.77-2.58-6.16-1.04-1.2-7.23-3.79-8.91-3.72-4.28.2-6.15,5.28-9.96,6.33.57,1.76,3.47,1.5,4.02,1.95.41.34-2.1,8.6-2.16,10.08-.14,3.82,4.1,10.97,6.9,13.77,1.97,1.97,5.76,2.56,4.8,4.92,1.94-.05,4.83.38,6.85.67,1.69.24,2.65.89,1.34,2.11-.37.35-4.76.54-5.85.48-1.55-.07-5.25.08-5.72-1.6-8.46,3.05-10.43-.08-17.46-.73-3.92-.37-8.19,2.37-10.87-2.55,5.62-2.86,12.46-8.46,13.24-14.75.31-2.53-1.2-5.18.03-7.76l4.3-1.67c-5.17-1.27-3.73-7.22-10.19-7.44-6.97-.24-6.38,3.92-9.5,6.92-1.53,1.48-4.8,2.45-6.82,4.36-6.54,6.18-10.17,14.08-15.45,19.97-2.44,2.73-7.7,5.16-10.46,7.93l2.88,2.76c-14.86,1.25-32.61,2.38-46.31-4.04-9.06-4.25-15.65-12.57-23.96-16.98-20.84-11.07-41.23-13.28-59.37-31.56-.94-.94-8.23-8.5-5.88-9.51,5.54,1.05,10.47-8.84,15.68-7.03,4.91,1.71,15.22,10.59,19.08,14.43,8.29,8.22,18.2,24.36,28.64,28.75,3.79,1.6,6.81,2.31,10.22-.56-.88-5.61-8.87-5.13-12.49-7.63-2.73-1.89-3.6-6.52-5.79-9.13-3.83-4.55-13.27-13.97-17.83-17.99-3.18-2.8-7.63-4.8-10.12-8.12l59.73,21.8c1.89-1.87.63-2.75-1.18-3.61,3.09-5.81,29.72-2.13,34.07-10.11-22.56,4.55-45.84,7.64-66.95-3.71-3.11-1.67-6.84-5.54-9.24-6.51-3.4-1.37-8.16-.7-10.34-4.76,1.6-1.93,3.66-.38,5.65.2,5.14,1.51,15.19,6.44,20.41,4.36,2.06-.82.37-1.57-.27-2.53-1.85-2.77-4.34-4.59-7.32-6.21-1.29-.7-5.17-.89-2.16-2.77,5.83-3.63,9.7-4.81,9.27-12.97-16.48-6.34-23.47,20.27-34.86,20.29-2.42,0-18.44-12.45-23.21-14.5-5.14-2.2-9.99-2.71-15.58-3.05.13-3.32,5.93-3.78,8.67-3.87,9.58-.32,19.21,2.92,28.78,1.56.38-.22-1.12-2.09-1.36-2.12l-23.13-2.27c-.19-.02-1.58-1.15-.84-2.08,1.29-1.61,8.77-6.88,11.03-8.4,10.14-6.85,21.79-11.88,31.94-18.77,9.52.99,21.86,6.18,29.87-1.55-1.08-1.04-11.86-4-13.88-4.17-4.22-.37-8.23,1.65-12.4,1.58l8.11-5.63c8.42-4.16,8.4.37,14.16,1.79,3.76.92,8.15.6,12.26,1.51,12.6,2.77,18.79,11.09,33.8,9.6,7.36-.73,29.66-12.4,32.36.56.53,2.55-.42,4.9-.13,7.32.71,6.1,10.69,9.12,15.43,12.18,1.85-7.22.29-12.9-5.5-17.92-1.1-1.68-8.63-3.65-7.8-5.8,1.09-2.79,13.19,3.8,14.53,3.41,3.38-.99,4.69-6.48,2.22-7.31-2.6-.87-7.22.43-10.48.11-5.87-.57-10.95-2.8-17.66-2.71-12.63.17-24.48,11.06-37.03,2.24,2.34-2.77,5.95-3.44,8.59-6.19,2.98-3.09,4.88-9.56,6.64-11.24.9-.86,7.03-1.82,9.74-3.21,4.66-2.38,8.54-6.98,12.93-9.53,12.06-7,9.57.24,18.04,2.54,14.41,3.92,26.48-3.44,40.61-3.86,2.78,2.44,5.3,5.15,8.72,6.96,4.22,2.24,9.23,2.92,14.01,3.33,2.24-3.85-7.79-9.74-6.14-11.54,4.32-.76,8.83-4,11.92-6.81.99-.9,2.15-1.09,1.9-2.8-5.61-2.25-12.43-2.89-18-.24-8.72,4.15-10.58,9.35-23.04,10.08-1.05.06-4.95.38-4.54-1.35,4.05-.81,8.45-.73,12.46-1.74.62-.16,3.61-.76,2.28-1.82-9.55-2.98-16.98,5.88-26.15,5.46-5.2-.24-8.96-3.28-13.39-4.27-8.64-1.94-13.66-.76-20.94,3.43-3.87,2.23-14.59,11-18.08,11.46-4.37.57-3.76-6.45-8.05-6.62,1.02,5.93-5.06,21.4-11.76,22.56-4.5.78-26.15-2.75-28.07-6.72-2.09-4.35,10.03-17.01,13.68-19.93,4.68-3.74,14.37-8.45,20.28-9.97,1.29-.33,3.55.13,4.09-.23.4-.26.84-2.85,1.81-4.02,9.73-11.79,30.96-5.54,44.62-15.18,1.81-1.28,7.45-7.87,9.35-7.79.66.03,9.02,4.18,12.23,4.91,7.07,1.59,15.45,1.6,22.7,1.24.34-3.4-4.44-5.57-7.3-6.63-5.96-2.2-9.75-2.07-15.96-1.9-1.17.03-3.72.78-3.3-1.03,16.89-3.04,34.06-1.03,51.12-.99-.14-1.46-4.43-3.31-5.54-3.53-2.23-.44-4.26.53-6.33.38-4.39-.32-8.77-.94-13.14-1.3,8.49-6.62,16.63-14.31,15.39-25.67-.24-2.17-3.12-9.82-6.24-8.27-.7.35-6.81,11.51-7.41,13.15-.74,1.99-1.99,6.31-2.27,8.3-.3,2.14,1.32,6.23-.27,8.25-.34.44-7.04,2.77-8.36,3.12-6.87,1.81-14.59,1.58-21.11,3.41-13.74,3.84-22.94,16.87-38.48,17.82-2.96.18-5.81-.97-8.98-.37-2.9.55-5.58,3.97-9.97,4.95-5.2,1.16-6.74.33-4.08-4.5,7.7-13.98,30.64-18.33,45.91-18.7,1.49-2.92-4.77-2.7-6.58-2.58-1.84.11-6.56,2.87-6.98.28,6.66-2.89,14.44-.66,21.09-2.87,4.05-1.35,7.4-3.56,1.58-4.9-4.57-1.05-9.41-1.92-14.11-2.36,2.89-5.44,1.8-10.9-1-16.11-17.82-.14-7.81,16.07-10.7,25.42-2.07,6.73-17.49,5.85-23.71,9.29-1.96,1.08-4.14,4.18-4.99,4.28-1.06.13-6.71-3.67-7.88-4.69l-5.95-8.55c-3.31,6.85,10.87,13.3,10.96,16.54.1,3.49-2.76,7.13-5.84,8.87l.13-5.96c-7.34.76-2.78,7.81-3.37,11.07-.6,3.25-6.18,9.29-9.66,10.57.84-4.72.92-9.65-.62-14.25-.24-.72-2.5-1.53-2.14-3.96-5.83,3.98-10.22,12.64-8.87,19.36.29,1.45,2.62,3.02,2.57,3.43-.11.93-11.11,9.71-12.76,14.19-.58,1.57.64,3.09-.86,4.45-1.59,1.45-6.79,3.64-9.1,5.18-15.87,10.61-31.61,21.5-48.67,30.46-1.52-.99.56-2.21,1.28-2.98,3.67-3.94,9.32-5.54,13.8-8.52,1.51-1,7.38-4.89,6.57-6.29-8.82-2.02,2.63-12.92-5.7-15.52.45,4.1.77,13.4-1.36,16.79-1.13,1.8-11.89,8.59-14.47,9.97-2.23,1.19-9.42,3.34-9.76,3.72-2.91,3.2,3.2,4.97,2.31,6.58-1.39,2.52-18.07,11.06-21.49,11.88-5.73,1.37-14.18-.59-19.24,1.12-2.1.71-6.34,4.72-9.98,6.26-11.49,4.84-24.66,5.12-36.64,1.58,1.1-6.75,14.01-3.29,15.39-4.48.12-.1-1.05-1.76-.27-2.97,1.24-1.92,6.89-3.73,6.71-7.34-2.34-2.81-19.82,17.35-18.94,3.13l-3.93,6.57c-11.24-14.86,7.4-13.77,17.02-17.02,3.58-1.21,8.41-5,12.42-6.79,7.56-3.38,23.18-7.88,31.41-7.08l15.24,1.49c.33-2.14.68-1.82-1.36-2.11-4.3-.61-8.2-1.98-12.54-2.3-7.7-.57-16.2.89-23.95.69-.08-2.4.77-3.91,2.28-5.71,2.29-2.73,9.19-5.67,10.28-7.02,1.05-1.3,1.02-3.85,1.9-5.59,3.67-7.21,8.97-7.8,16.99-6.5.96-3.62-3.56-2.72-5.63-2.68-1.12.02-3.62.22-2.39-1.58,3.05-4.46,17.24-10.06,19.62-14.04,1.64-2.75-2.92-.94-4.13-.32-2.96,1.53-13.64,10.97-15.64,10.83-3.75-7.07-10.91-18.5-4.15-25.7.76-.81,4.35-.53,6.11-.95,9.78-2.33,17.4-4.78,24.15-12.14-7.21-2.2-14.99-2.1-21.39,1.97-2.64,1.68-3.89,4.71-6.98,4.71.35-1.93,2.43-4.55,3.85-5.89.83-.78,2.06-.47,2.13-.55.67-.85-2.34-4.1-.34-5.95-4.86.34-2.38-2.07-3.06-5.34-2.57-12.33-14.32-13.2-9.91.31,1,3.05,7.12,9.03,6.97,10.87-.19,2.27-4.29,8.76-5.27,11.73-2.75,8.37-3.24,14.83-1.75,23.45.39,2.28,2.51,5.76,2.29,7.27-.11.8-8.5,12.52-9.49,13.47-1.28,1.23-2.84,2.15-4.69,2.36-9.74,1.09-9.83-6.27-12.52-12.66-.72-1.71-3.94-4.53-.27-4.32,4.04.23,8.08.92,12.11,1.18-2.36-4.51-6.47-7.45-10.52-10.49,4.52-1.22,9.21-4.62,10.38-9.19.71-2.76.86-4.11-2.53-4.08-5.99.05-12.61,1.11-16.07,5.99-3.54-4.44-3.56-8.32-10.05-9.95-1.16,4-3.72,11.33-1.71,15.12.38.72,2.03.78,2.04,1.39.02,2.39-3.37,4.07-4.83,6.67-2.87,5.11-3.03,11.84-6.79,16.63-1.34,1.71-4.03,2.84-4.17,3.2-1.02,2.67-.25,7.1-1.37,10.42-1.2,3.53-6.44,7.21-7.93,10.87-.92,2.27-.62,5.18-1.77,6.86-.61.89-15.73,10.13-18.4,12.08-15.45,11.27-31.34,25.71-49.21,33.26-9.54,4.03-20.77,6.51-30.93,8.74l2.13-4.76c-3.62-1.92-9.19,4.73-10.6,4.67-3.45-.13-11.04-8.78-12.44-12.01-.53-1.21.22-3.22-.77-4.07-2.86-2.45-16.29-.32-21.04-.93-1.61-.21-2.67-.97-1.37-2.15.42-.38,10.14-1.78,11.44-1.81,17.03-.39,32.78,6.66,49.29,8.59,7.71-16.25,28.02-21.11,45.27-23.32-2.94-4.9-12.09,1.11-16.76-2.13,1.91-1.69,2.7-4.19,4.44-5.99,9.37-9.67,16.87-9.31,27.37-15.04.97-.53,3.01-.4,1.07-2.15-8.46,1.99-15.85,4.4-23.28,8.69-12.22,7.05-21.56,18.64-33.21,26.14-3.02,1.95-6.6,3.71-9.89,5.26l-32.67-4.98c-.11-1.47,2.11-1.04,3.3-1.17,5.24-.56,12.47.01,16.39-3.86-5.64-2.74-11.04-4.71-17.54-4.73,2.74-5.1,2.77-11.68.26-16.93-13,1.92-12.51,13.4-11.88,23.34l-.84.84c-1.75.93-22,4.73-24.74,4.84-3.96.16-9.09-1.37-12.2-.99-.45.06-4.58,4.63-6.75,5.78-24.11,12.82-71.91,7.11-98.38,2.79-3.88-.63-10.79-5.02-13.33-1.22-.18,2.94-.87,5.93-.99,8.87,0,.13.85,1.14.84,2.48ZM460.59,131.19l4.63-3.52c.04,1.99-2.4,3.95-4.63,3.52ZM698.48,361.81c1.6-.81,10.43,6.04,10.69,7.71.22,1.42-4.8,11.55-5.97,11.69-4.57.53-8.88-16.1-4.72-19.39ZM645.29,324.2c1.81-2.07,2.11-.6,3.82-.23,7.4,1.63,16.2,5.91,22.35,10.1,1.55,1.06,4.91,2.35,4.09,4.55-11.33-1.04-23.08-5.95-30.26-14.42ZM570.94,304.46l5.62,1.44c-2.41-.34-6.75,2.1-5.62-1.44ZM501.06,311.55c2.23-2.24,12.22-10.02,14.67-10.39,1.73-.26,3.17.88,4.79,1,3.06.21,5.83-.83,9.07,1.25.04,1.38-4.29,1.49-5.05,1.42-1.25-.12-4.36-1.59-4.51-1.38-.32.47.36,1.87-1.02,2.96-2.72,2.16-14.02,4.9-17.96,5.14ZM397.14,290.41c1.04-.67,9.73,1.73,11.63,2.43,1.05.39,3.15.56,2.75,1.95-4.14-1.94-8.61-1.62-13.04-2.27-1.71-.25-2.83-1.16-1.33-2.12ZM297.05,172.95c-2.01-1.08-6.1-3.32-8.1-3.77-4.61-1.05-10.47-.6-15.25-1.49,2.99-3.81,1.13-10.13,2.6-14.01.13-.35,5.84-3.54,6.8-3.64,4.99-.55,9.33,8.23,10.41,12.07.62,2.19.11,4.89.81,6.61.87,2.14,5.23,2.07,2.72,4.24ZM263.83,196.92c-.74-.01-2.91.78-2.81-1.07.05-1,5.4-8.23,6.46-10.32,1.34-2.64,4.45-12.29,5.09-13.03,1.01-1.15,9.66-1.11,11.81-.8,3.78.54,16.59,4.18,15.36,8.82-.32,1.23-8.1,8.24-9.8,9.27-5.85,3.54-19.22,7.23-26.12,7.12ZM265.45,222.68c-5.95.16-11.06-2.15-16.61-3.63,1.43-1.2,4.21-5.38,5.23-6.18.77-.61,6.89-4.08,7.53-3.52.1,4.81,4.87,8.58,3.84,13.33ZM314.16,236.63c-6.56-4.56-3.03-7.13,3.03-10.31,9.16-4.81,24.31-2.97,34.29-.91,4.45.92,19.15,6.77,19.69,11.26.28,2.34-12.9,9.42-15.61,10.53-13.01-4.11-30.07-2.7-41.4-10.57ZM242.72,250.37c6.08-3.98,9.94-10.33,15.2-14.14,1.32-.96,5.61-3.25,7.15-3.42,6.43-.72,28.83,4.52,35.75,6.75,1.3.42,14.69,5.54,11.85,7.68-2.45-1.53-3.49.74-5.81,1.63-21.99,8.46-43,17.91-67.46,13.01-1.13-.23-8.49-2.48-8.83-2.77-2.84-2.4,10.3-7.52,12.16-8.74ZM238.77,233.55c1.08-.82,2.41-2.98,2.62-3.06.6-.25,11.82-.2,13.09,0,1.64.26,2.63.45,3.48,1.92-11.83,8.25-22.52,21.45-39.14,17.58-2.35-2.51,17.88-14.87,19.95-16.45ZM138.3,299.95c11.58,4.24,24.71,5.55,35.35,11.91,3.66,2.19,13.92,10.88,4.69,10.96-11.09.09-17.78-4.31-27.31-8.2-3.19-1.3-10.13-2.32-11.65-4.68-.43-.67-2.38-7.22-2.44-8.1-.08-1.26.38-1.24,1.36-1.88ZM112.99,274.51c.71-.6,5.12,3.38,5.87,4.12.69.69,4.91,5.44,5.21,5.93,1.2,1.92,1.4,3.92.93,6.07-7.11-2.03-12.31-9.2-12.01-16.12ZM81.77,268.45l21.55,2.11c1.64.16.96,4.67,1.47,6.1,1.09,3.08,7.32,5.89,7.96,9.29.3,1.61-.31,1.55-1.73,1.33-5.98-.95-15.67-4.47-20.59-7.82-1.71-1.16-11.33-9.03-8.66-11.01ZM79.88,247.33c1.23-2.12,4.17-2.09,6.22-3.36,3.26-2.03,6.23-6.2,10.22-6.07,2.9.09,5.42,1.57,8.25,1.94,8.23,1.06,16.06.19,24.25,1.27.68,6.47,5.52,8.79,11.04,11.61-10.43.44-20.74-2.73-31.15-1.51l-28.84-3.88Z"/>
    <path class="cls-4" d="M558.11,305.19c1.57.06,2.78-.19,3.37-1.66-2.85.08-3.16,1.58-3.37,1.66Z"/>
    <path class="cls-4" d="M514.31,386.83c.53.94-.3,2.77-.01,4.05.35,1.53,2.27,2.45,2.45,3.65.23,1.52-1.75,3.57-1.39,4.13.2.32,6.51,1.94,5.68,4.87-.71,2.5-6.99,7.67-9.61,9.03-5.47,2.83-14.41,6.15-20.56,5.66-.49,1.69,1.54.74,2.7,1.58.39.28.12,1.72.69,1.79,1.88.23,10.91-3.38,15.32-3.43,8.82-.1,20.46,4.21,27.82,2.13,6.33-1.79,14.75-7.13,17.9-12.68,1.51-2.67.39-6.5,5.48-6.46l.11-.96c-2.8-.24-2.88-2.97-4.26-4.45-5.35-5.71-14.78-.56-16.16-1.69-.77-.63-3.4-7.18-4.48-8.78-1.41-2.09-9.06-12.25-11.58-10.59.92,1.59-.23,3.21-.05,4.47.15,1.06,3.37,3.94-.29,3.45l-13.31-14.25c-2.48,3.9.27,8.01,1.1,11.79.32,1.46-.44,3.24-.11,4.62s2.24,1.5,2.56,2.07Z"/>
    <path class="cls-4" d="M323.31,388.56c1.93-2.63,5.72-12.36-.94-7.74-3.07,2.13-10.29,9.11-13.34,12.06-1.11,1.07-1.8,3.82-3.67,4.43-.59.19-8.08-2.96-11.95-2.68-2.17.16-7.87,3.96-8.67,6.1.84.14,2.43-.06,2.93.44.41.41,1.46,8,3,10.85,1.28,2.36,2.66,3.7,4.6,5.52,12.31,11.54,19.43,5.56,33.96,8.47,4.6.92,15.94,8.74,19,5.85,1.66-1.57-.18-1.68-1.24-2.19-7.15-3.43-22.09-9.47-22.83-17.85-.61-6.9,5.6-3.98,5.73-6.16.02-.28-2.13-1.78-1.72-3.04.36-1.1,3.17-1.97,3.92-3.19,1.41-2.31,2.9-7.48,4.11-9.84,1.74-3.38,5.96-6.31,5.24-11.18-.59-.78-6.25,2.67-7.25,3.29-1.63,1.02-9.65,8.2-10.89,6.88Z"/>
    <path class="cls-4" d="M195.92,157.85c-.08.14-2.69,1.88-2.86,1.9-6.1.63-16.25-3.84-21.95-6.1,1.19,5.19,8.3,5.19,12.77,8.78,5.81,4.66,7.76,11.61,16.31,13.76,2.92.73,5.76,1.08,8.76.63,4.34-.65,7.82-5.39,10.75-1.47-.09-6.23-.91-11.06-8.04-12.82,1.64-6.27,3.09-12.16,1.98-18.66l-5.79,4.41c.35-4.35,1.06-10.11-1.1-14.06-2.1,2.09-2.77,5.01-4.09,7.5-1.19,2.23-6.26,9.89-6.81,12.03-.35,1.36.87,2.74.08,4.11Z"/>
    <path class="cls-4" d="M629.79,186.64c-.27-1.68,1.85-.27,2.3-1.38,2.28-5.56-3.38-2.77-6.18-1.42-2.16,1.03-8.38,6.53-8.95,6.57-4.55.28-6.34-5.76-10.88-3.98-6.19,2.42-2.68,3.45-2.5,6.15.51,7.35-2.75,7.32,4.35,13.84,6.35,5.83,9.65,4.13,16.99,6.94,5.43,2.08,9.18,7.08,14.9,7.16l-2.72-1.51c-3.18-5.62-12.3-10.23-11.17-17.29.47-2.94,2.71-.11,5.02-1.95.31-.25.02-1.49.44-1.98,1.59-1.86,14.06-13.02,12.6-14.72-4.96.21-9.17,4.09-14.21,3.58Z"/>
    <path class="cls-4" d="M401.55,57.88c-.25.31-1.84.04-1.89.63-.1,1.04,1.16,2.61.62,3.88s-3.32.95-3.4,1.84c-.12,1.22,1.19,3.07.66,4.82-.29.97-2.85.63-3.43,1.91-.64,1.43,1.16,3.99.31,5.8-.62,1.31-2.69,1.04-3.99,1.62-.41.18-.53,1.36-1.29,1.44-3.89.44-12.2-1.62-16.21-2.83-3.81-1.14-7.06-3.3-10.4-4.73-2.67-1.15-.76,2.7-1.92,3.69,4.85,2.12,11.08,4.05,15.46,6.77,7.94,4.93,10.88,14.73,19.92,18.24,7.04,2.73,13.85,3.6,21.07.95,3.93-1.44,6.12-5.52,9.31-1.5l.23-7.39c-.6-7.02-11.34-8.54-11.33-10.08,2.78-8.56,4.11-17.29,2.66-26.19l-4.83,6.05c.33,1.8-2.03,1.67-2.34,1.21-.44-.64.64-12.21.28-15.11-.13-1.05.17-4.78-1.86-3.98-.99.39-4.21,4.35-4.87,5.5-1.32,2.31-1.96,6.47-2.77,7.45Z"/>
  </g>
</svg>