<?xml version="1.0" encoding="UTF-8"?>
<svg id="Layer_1" data-name="Layer 1" xmlns="http://www.w3.org/2000/svg" viewBox="0 0 3840 1195">
  <defs>
    <style>
      .cls-1 {
        fill: #fdfcef;
      }

      .cls-2 {
        fill: #4a6b3e;
      }
    </style>
  </defs>
  <rect class="cls-1" width="3840" height="1195"/>
  <g>
    <path class="cls-2" d="M3497.4,238.02c.06.05.66-.9.91-1.1-.16.29-.96,1.06-.91,1.1Z"/>
    <path class="cls-2" d="M3604.17,157.52l-1.1-.91,1.1.91Z"/>
    <path class="cls-2" d="M3733.39,377.71c-21.59-18.83-74.01-37.82-101.35-55.51-17.42-11.27-39.02-28.06-55.33-41.21-.37-.3-.73-.61-1.1-.91-2.3-1.87-5.38-4.44-7.73-6.35-.37-.3-.73-.61-1.1-.91-.37-.3-.73-.61-1.1-.91-14.85-12.04-27.93-26.44-45.09-35.67,42.16,20.5,73.31,57.98,112.24,83.86-34.07-42.71-78.02-77.03-127.41-100.29-10.49-4.94-25.72-8.18-35.07-14.69-8.55-5.95-15.65-19.38-23.99-27.05-28.41-26.15-75.67-25.72-96,9.42,22.33-15,40.98-27.85,69.21-18.43,25.61,8.54,29.04,28.56,45.64,41.2,9.38,7.14,30.89,12.17,42.9,19.78,13.26,8.39,23.15,20.65,34.21,31.48-17.04,7.08-21.69-8.8-32.64-17.64-3.39-2.73-7.59-4.83-11.38-6.97-.16.29-.96,1.06-.91,1.1,5.62,3.68,14.84,11.95,16.55,18.67-14.66-18.04-42.85-30.78-65.59-21.98,21.07-3.64,46.63,7.7,59.24,24.64-13.1-1.18-27.41-2.67-38.98-9.34l9.53,9.18c-14.83,2.85-28.55-1.7-39.66-11.32,5.27,13.77,19.42,22.79,33.07,26.67,3.13.89,21.26,4.53,23.24,4.34l20.61-2.02c-2.53,2.85-9.6,5.06-13.17,5.42-5.13.51-24.37-.84-30.3-1.43-9.49-.94-18.57-3.78-25.67-10.37,8.51,12.19,24.22,15.35,38.27,12.47-13.01,7.88-28.96.66-41.11-5.63,16.2,23.69,48.43,31.78,75.94,29.59l-29.22-13.35.93-1.13c21.2,9.7,31.78,15.38,55.65,9.69,2.39-.57,6.47-3.56,6.85-3.6.8-.09-.5,1.91,1.3,2.75,11.22,5.28,23.44,7.2,35.44,9.87-4.54-4.46-31.57-10.17-34.23-12.98-.53-.56,1.33-2.86.22-2.96-.23-.02-1.98,1.95-3.9,2.32-12.35,2.39-26.52-2.47-36.84-9.01,16.4,1.97,23.53,9.12,40.84,2.59-7.33-1.28-8.87-.43-16.38-4.24-4.77-2.42-15.9-13.41-16.95-13.7-.42-.12-5.81,2.52-8.21,2.77-11.01,1.15-16.58.61-26.78-3.47l-11.32-7.03c11.24,1.68,21.96,6.85,33.62,5.85,5.79-.5,20.7-7.39,22.33-7.14,1.04.15,6.08,4.43,8.48,5.53,3.94,1.81,8.16,2.24,11.52,4.52-9.05,2.2-15.44-.47-23.58-3.35-1.72-.61-3.32-.53-.97,1.19,10.74,5.79,21.78,9.13,33.59,11.99,2.54.62,8.25-1.11,3.73,2.99-1.49,1.35-6.86,3.25-9.08,4.09,1.69.3,4.02-.49,6.84.1,7.69,1.61,20,11.36,28.91,12.61l-20.48-17.24c6.89,4.63,13.96,9.41,20.36,14.69,1.44,1.19.14,3.25.32,3.45.38.44,8.32,2.75,10.78,4.31,31.76,20.15,65.14,38.63,96.31,59.4,4.89,3.26,39.01,26.75,39.92,29.05,1.13,2.87-2.21,1.04-3.28.62-31.63-12.67-70.89-51.34-103.51-61.88-29.45-9.52-74.46-6.38-105.63-14.29-.47-.37-1.47-1.11-1.14-1.41,3.68-3.4,87.64,13.4,99.46,10.54-31.93-6.91-64.34-13.95-96.47-18.78-10.72,11.32-28.71,8.5-42.16,4.73-25.74-7.21-52.83-30.16-59.12-56.86,9.9,82.01,114.02,76.02,175.63,83.23-5.58,2.07-14.12.96-20.41.65-39.14-1.92-84.82-5.35-119.44-24.46,31.11,26.39,73.86,31.08,113.3,32.51-.5.89-6.87,2.69-7.33,2.73l-22.62,2.22,18.82.18,1.69,1.86c-55.88,24.61-125.05,6.47-158.49-45.01-17.12-26.35-15.93-58.37-33.82-84.27,24.36,16.99,34.06,38.39,39.07,67.2-2.94-16.9-6.36-37.1,4.5-52.2,3.41-4.75,8.44-7.51,12.59-11.37-19.93,6.55-34.45,6.46-50.03-8.29-1.89-1.78-14.54-16.23-14.38-17.35,1.22-8.58,23.26,2.42,26.63,2.53,11.36.38,15.48-11.72,21.49-18.94-8.31-.3-6.83,8.52-11.88,12.88l-3.93,1.84c13.5-8.98,3.88-26.77-10.23-18.05-10.25,6.34-4.77,19.64,7.21,18.37-10.65,4.79-18.76-8.68-11.3-17.15,9.62-10.94,24.52-1.48,35.76-2.5-9.46-2.59-18.24-7.38-28.42-5.34-10.5,2.11-22.51,17.93-33.05,15.49-6.39-1.48-3.94-4.84-14.49-3.7-12.2,1.31-23.33,7.69-32.5,15.36,10.56.73,27.34-11.77,36.97-10.79,1.86.19,2.53.14,1.73,2.36-1.84,5.06-13.22,2.08-16.69,5.22l32.35-1.13c.41,2.38.46,1.72-1.3,2.17-11.69,2.98-31.69-2.69-42.82,3.16l41.04,4.62-10.04.97c13.12,15.65,23.31,28.48,29.64,48.3,16.06,50.27,27.44,80.48,79.6,103.38,4.57,2,28.94,8.83,29.45,10.3,1.14,3.33-32.5,29.06-36.85,30.72-6.46,2.46-13.25,1.03-19.17,2.75-6.9,2-12.09,16.34-9.45,23.17,2.55-7.44,4.44-16.43,13.38-18.56l-7.33,10.14c-5.03,16.28,10.88,23.85,14.02,16.6-3.1-.48-4.69,1.22-8.34-1.66-5.43-4.28-5.33-11.71,3.23-9.01l-3.33-3.22,11.09-10.73c.9.79-3.81,7.88-4.01,10.09-.41,4.48,2.74,11.37,1.37,14.53,2.76.42,5.32,1.89,8.24,1.21-5.91-1.46-4.93-14.09-1.99-14.99.67-.2,12.56,4.42,13.08,4.88.55.49,1.26,2.84-1.13,3.07-.87.09-15.21-7.12-9.28-1.09,1.08,1.1,10.72,3.05,12.57,2.82,5.29-.65,7.47-10.38,15.71-9.7l-11.09,10.75c-3.43,4.69-4.64,11.93-.84,16.72,6.49,8.2,1.16-3.17,1.08-3.67-.94-6.21,10.3-15.92,11.74-14.75.96.78-10.76,18.64-1.59,23.29,7.67,3.89.77-3.76.56-4.64-1.25-5.26,7.82-17.95,11.88-21.75-2.93,8.45-5.77,13.61-1.33,22.45,4.24,8.44,13.29,8.87,15.64-1-2.04-.41-1.8,4.11-4.27,4.78-7.83,2.13-11.7-14.07-6.5-14.25,4.03-.14,19.85,7.68,23.91,10.29l17.8,14.88c.88.72,7.35,5.44,7.83,5.89,10.85-1.95,21.59-5.44,31.87-9.57-.5-.51-5.67-3.58-9.64-5.52-.62-.3-1.04-.51-1.32-.64l-23.81-12.47c16.28-17.03,44.41-38.04,68.53-40.75,9.02-1.01,20.85,4.25,25.68-6.63,2.35-5.29-5.43-4.76-9.31-4.03-7.02,1.33-8.73,7.38-11.87,8.8-4.92,2.23-14.53,2.54-20.04,3.41l14.68-19.81,5.99-12.63c-4.23,5.61-8.89,13.34-13.96,18.1-10.63,10-3.82-5.67-5.37-13.66l-1.48-4.45c5.85,39.34-39.4,43.9-62.52,63.82-10.73-1.81-19.91-10.78-31.46-7.93.97-2.65,6.05-6.82,8.41-7.49,3.31-.93,5.97,1.24,6.16,1,3.75-4.74-15.35-3.73-18.88-.63l43.67-51.56c8.41-6.98,63.21-14.97,72.38-11.56,4.27,1.59,27.14,20.3,32.47,24.61,1.14.92,33.13,22.66,33.13,22.66l-58.42-47.56c24.97,12.31,43.94,37.56,66.97,51.79,7.56,4.67,17.96,8.42,25.51,1.55l-73.29-54.19c1.92-.65,2.77.26,4.22,1.04,18.93,10.18,52.95,44.78,69.59,50.3,18.65,6.18,14.94-7.9,17.62-10.46.87-.82,4.97.15,7.15-2.91,4.44-6.24-2.84-17.85-7.68-22.08ZM3399.14,188.26c3.48,1.5,3,7.28-2.56,4.87l1.22,1.89c-10.43,2.94-5.77-9.82,1.35-6.76ZM3507.67,409.56c-19.28,20.7-18.28,15.14-45.27,9.49-.73-1.5,5.17-5.91,5.54-6.08,2.75-1.23,9.45.32,6.84-2.22-3.91-3.79-12.96.78-16.99,2.65l47.25-34.61c1.82-.47,8.8,5.77,11.67,7.32,2.24,1.21,6.32,1.35,6.56,1.6,1.82,1.91-13.26,19.34-15.59,21.84ZM3655.75,351.86l70.59,47.36c-24.4-14.39-47.78-30.6-70.59-47.36Z"/>
    <path class="cls-2" d="M3570.58,462.07l-.23-.12c.14.07.23.12.23.12Z"/>
    <path class="cls-2" d="M3498.3,236.92c-.25.21-.85,1.15-.91,1.1-6.19-4.05-13.77-6.08-20.21-9.7,7.74,1.33,14.38,4.81,21.12,8.59Z"/>
    <path class="cls-2" d="M3604.17,157.52c-.98.73-4.13,7-4.71,8.61-10.88,29.84,19.04,50.35,25.37,77.66l18.14-27.18-1-4.94,2.89,3.74c5.68-6.25,10.49-12.75,13.7-20.6l-6.17,15.83c-28.03,21.34-24.02,47.2-21.09,78.66l-2.42,16.51c-11.24-10.62,2.73-24.06-13.81-32.7-2.82-1.48-5.49.13-8.95-2.61-2.58-2.04-11.16-19.83-9.55-19.88,1.02-.03,16.46,8.3,17.72,9.93,5.14,6.59.5,8.04,1.24,10.89.33,1.27,6.94,5.92,8.62,6.92.12-10.64-1.34-20.99-4.36-31.25-2.02-6.85-12.8-33.25-16.79-38.07-3.08-3.73-15.5-9.58-19.82-7.36-1.12.58-1.71,2.97-3.44,3.69-6.21,2.59-10.75-.86-14.96-4.92,2.92-.3,7.89,5.27,10.27,1.56-5.89-.63-10.52-5.55-16.67-4.48,2.6-3.8,9.52-3.83,13.77-4.37l-1.8,2.19c4.39-4.21,28.44,11.5,30.32,9.2.98-1.2-9.34-24.65-14.78-26.49-1.42-.48-3.29,1.08-5.03.65-12.52-3.16-11.63-15.11-16.61-24.88,8.67,2.69,19.12,6.35,22.22,15.78.77,2.34.62,12.9,5.5,13.48,2.61.31,3.41-13.04,4.68-16.42.79-2.09,5.2-7.18,6.41-10.04l1.1.91Z"/>
    <path class="cls-2" d="M3430.35,413.08c-1.62,2.7-3.55,6.26-6.88,6.8-11.73,1.91-43.59-9.62-57.07-10.42-6.14,3.65-12.41,5.94-18.94,1.58l-22.48-17.05c11.91-6.33,36.19-4.93,42.26,8.76.58,1.31-.78,3.83-.39,4.35,1.59,2.14,26.72,3.21,30.75,3.09-11.8-11.14-22.98-22.63-33.86-34.71-1.14-1.26-3.45-1.6-4.8-3.15-7.33-8.4-8.72-24.21-3.92-34.06,2.65,12.12,18.91,16.18,16.95,30.08-.46,3.23-3.39,4.75-3.78,6.2-.78,2.87,23.22,26.92,28.73,28.6-4.39-6.75-4.31-21.48-6.67-27.07-.18-.44-5.92-2.53-8.07-5.04-7.81-9.11-6.28-26.67-.11-36.44,2.74,11.74,17.39,18.39,15.76,30.95-1.14,8.76-7.37,6.21-4.39,19.93,4.41,20.35,17.27,27.18,36.95,27.6ZM3355.81,346.31c.6,2.54,2.26,4.96,4.21,6.66-.79-1.91-2.24-5.86-4.21-6.66ZM3389.91,373.4l-7.68-16.49c.15,6.6,1,13.33,7.68,16.49ZM3365.91,371.7l.1,1.01.45-.55-.55-.45ZM3362.92,408.51l-26.41-10.58c8.17,4.73,16.34,11.22,26.41,10.58Z"/>
    <path class="cls-2" d="M3355.22,443.77c4.62-10.91,17.1-27.12,30.2-27.29,2-.03,11.09,3.84,11.24,5.48.07.82-7.97,12.37-9.24,13.62-10.5,10.33-19.96,4.24-32.2,8.2ZM3394.65,421.66c-5.59,1.16-13.53,2.76-17.6,6.78l17.6-6.78Z"/>
    <path class="cls-2" d="M3605.15,158.53l5.18-9.14c-1.65-3.24-4.25,7.59-6.57,5.23-.33-.34-.83-7.9-.68-9.33,1.15-11.06,12.39-14.1,20.84-17.99-7.92,9.78-2,31.04-18.77,31.23Z"/>
    <path class="cls-2" d="M3610.2,322.36l-39.32-5.58-34-7.52c5.9-3.04,8.84-2.79,15.02-2,18.32,2.34,39.66,12.02,58.3,15.1Z"/>
    <path class="cls-2" d="M3410.73,385.19c6.41,4.75,12.27,7.21,12.41,16.8.15,10.61-11.15,7.45-13.82-1.01-2.35-7.47,1.75-13.26-2.26-18.63,1.61-.75,2.62,2.06,3.67,2.83Z"/>
    <path class="cls-2" d="M3641.85,210.64c-12.07-13.26-7.96-21.8,3.88-32.85-2.32,7.78,3.88,17.01.37,23.86-1.54,3.01-6.48,3.27-4.25,8.99Z"/>
    <path class="cls-2" d="M3578.11,109.34c.69.56,10.96,13.01,11.26,13.85,2.43,6.81-3.39,9.67,3.38,16.14-7.71-7.73-15.5-9.5-16.92-22.11-.09-.79-.1-9.81,2.27-7.88Z"/>
    <rect class="cls-2" x="3595.44" y="143.14" width="1.01" height="16.16" transform="translate(2.43 352.02) rotate(-5.61)"/>
    <path class="cls-2" d="M3433.89,232.09c.8.43-.76,1.79-1.9,1.18-.8-.43.76-1.79,1.9-1.18Z"/>
    <path class="cls-2" d="M3544.51,356.2c.8.43-.76,1.79-1.9,1.18-.8-.43.76-1.79,1.9-1.18Z"/>
    <path class="cls-2" d="M3594.54,142.22c-.43.8-1.79-.76-1.18-1.9.43-.8,1.79.76,1.18,1.9Z"/>
    <polygon class="cls-2" points="3415.58 298.82 3416.13 299.28 3415.68 299.83 3415.58 298.82"/>
    <polygon class="cls-2" points="3437.79 245.9 3438.34 246.36 3437.89 246.91 3437.79 245.9"/>
    <polygon class="cls-2" points="3592.34 310.9 3592.89 311.36 3592.43 311.91 3592.34 310.9"/>
    <path class="cls-2" d="M3656.15,206.22c.81.36.44.44.1.98-1.3,2.06-2.07.67-.1-.98Z"/>
    <path class="cls-2" d="M3658.97,203.92c.81.36.44.44.1.98-1.3,2.06-2.07.67-.1-.98Z"/>
    <path class="cls-2" d="M3625.03,183.9c-2.69,9.39-.06,19.79-10.21,25.32-.41-1.23,2.89-4.38-.26-2.98-2.1.93-.99,6.72-4.07,4.37-8.48-6.46,5.65-25.92,14.54-26.71Z"/>
    <polygon class="cls-2" points="3354.24 376.9 3354.79 377.35 3354.34 377.91 3354.24 376.9"/>
    <path class="cls-2" d="M3423.98,436.02c5.41.58,1.79,8-.59,10.61-9.49,10.43-26.19,3-37.88,5.86,8.33-11.06,27.03-28.72,40.48-16.69-4.01-2.41-13.27-2.12-16.6,1.65,4.37.18,10.5-1.87,14.57-1.43Z"/>
    <polygon class="cls-2" points="3365.91 371.7 3366.46 372.15 3366 372.7 3365.91 371.7"/>
  </g>
  <path class="cls-2" d="M3547.18,475.9c8.02,10.69,72.15,40.18,179.02,36.07,85.5,1.34,200.39-4.01,211.08-4.01s86.84,2.67,117.56,4.01c30.73,1.34,58.78-29.39,36.07-29.39s-126.92-5.34-168.33-5.34c-94.29,0-106.88,0-175.01,5.34-34.98,2.74-149.63-9.35-171-17.37-9.7-3.64-25.28,9.45-29.39,10.69Z"/>
</svg>